<?xml version="1.0" standalone="no"?>
<!DOCTYPE svg PUBLIC "-//W3C//DTD SVG 1.1//EN" "http://www.w3.org/Graphics/SVG/1.1/DTD/svg11.dtd" >
<svg xmlns="http://www.w3.org/2000/svg">
<metadata></metadata>
<defs>
<font id="vwutopia-bkittabmedium_italic" horiz-adv-x="1085" >
<font-face units-per-em="2048" ascent="1638" descent="-410" />
<missing-glyph horiz-adv-x="460" />
<glyph unicode="&#xfb01;" horiz-adv-x="1253" d="M-147 -377q0 39 28.5 71t63.5 32q20 0 32.5 -14.5t22.5 -30.5q41 -63 66.5 -82t42.5 -19q8 0 15 4t15 18.5t17.5 42t17.5 74.5l238 1207h-183l23 78h178l23 75q27 88 63.5 168t93 140.5t138 96.5t196.5 36q84 0 146.5 -20.5t103.5 -51.5t61.5 -67.5t22.5 -71.5 q0 -25 -10.5 -44.5t-26.5 -32.5t-36.5 -19.5t-39.5 -6.5q-29 0 -42 13.5t-19 35.5q-25 92 -72 142.5t-114 50.5q-57 0 -99.5 -26.5t-74 -77t-58.5 -123t-51 -164.5l-14 -53h223q141 0 237.5 9t157.5 15l8 -10l-225 -823q-14 -49 -12 -81t32 -32q23 0 48.5 23.5t51 57.5 t48 71.5t37.5 64.5l49 -29q-27 -57 -60.5 -111.5t-75.5 -94t-90.5 -64.5t-103.5 -25q-86 0 -108.5 56.5t0.5 144.5l176 655q6 27 8 44.5t-4 28.5t-23.5 16.5t-50.5 5.5h-338l-190 -863q-33 -147 -67 -252.5t-77 -174t-99 -100.5t-134 -32q-37 0 -69.5 9.5t-58.5 25t-42 38 t-16 46.5z" />
<glyph unicode="&#xfb02;" horiz-adv-x="1245" d="M-147 -377q0 39 28.5 71t63.5 32q20 0 32.5 -14.5t22.5 -30.5q41 -63 66.5 -82t42.5 -19q8 0 15 4t15 18.5t17.5 42t17.5 74.5l238 1207h-185l23 78h178l23 75q25 84 63.5 164t97 141.5t138 98.5t190.5 37q78 0 139.5 -28t98.5 -71l151 99l29 -19l-320 -1308 q-12 -51 -10 -81t31 -30q18 0 43.5 20.5t51.5 53t50.5 70.5t42.5 73l49 -29q-25 -57 -59.5 -110.5t-77.5 -94t-93 -65.5t-103 -25q-84 0 -106.5 56.5t-0.5 144.5l262 1073q-14 80 -61 139.5t-139 59.5q-57 0 -99.5 -26.5t-75 -77t-59.5 -123t-51 -164.5l-15 -53h265l-21 -78 h-256l-190 -863q-33 -147 -67 -252.5t-77 -174t-99 -100.5t-134 -32q-37 0 -69.5 9.5t-58.5 25t-42 38t-16 46.5z" />
<glyph horiz-adv-x="2048" />
<glyph horiz-adv-x="2048" />
<glyph unicode="&#xd;" horiz-adv-x="460" />
<glyph unicode=" "  horiz-adv-x="460" />
<glyph unicode="&#x09;" horiz-adv-x="460" />
<glyph unicode="&#xa0;" horiz-adv-x="460" />
<glyph unicode="!" horiz-adv-x="491" d="M141 92q0 63 37 101t96 38q55 0 86 -33.5t31 -80.5q0 -66 -37 -104t-96 -38q-55 0 -86 34t-31 83zM307 428l113 891q8 55 35.5 92t109.5 37q84 0 95.5 -39t-9.5 -100l-286 -881h-58z" />
<glyph unicode="&#x22;" horiz-adv-x="823" d="M422 961l24 452q4 53 29 80t84 27q66 0 85.5 -27t-1.5 -80l-164 -452h-57zM770 961l25 452q4 53 28.5 80t83.5 27q66 0 85.5 -27t-1.5 -80l-164 -452h-57z" />
<glyph unicode="#" d="M182 473l35 98h213l94 269h-215l35 98h215l152 430h114l-149 -430h270l152 430h112l-149 -430h209l-31 -98h-213l-94 -269h211l-31 -98h-215l-166 -473h-115l166 473h-270l-166 -473h-117l166 473h-213zM547 571h270l94 269h-270z" />
<glyph unicode="$" horiz-adv-x="1105" d="M145 246q2 47 32 74.5t65 27.5q25 0 37 -13t20 -36q20 -61 47 -103t56.5 -67t60.5 -37t59 -16l131 571q-164 68 -228.5 152t-64.5 188q0 90 35 161t96.5 120t146.5 74.5t183 25.5l37 154h82l-35 -158q61 -6 116.5 -23.5t97.5 -46t66.5 -65.5t24.5 -82q-2 -43 -33.5 -67.5 t-64.5 -24.5q-27 0 -39 14t-18 39q-23 86 -65 130t-101 54l-117 -501q63 -29 120.5 -64t100.5 -81t68.5 -106.5t25.5 -140.5q0 -88 -35.5 -162.5t-100 -128t-157 -82t-204.5 -26.5l-47 -223h-86l51 227q-82 6 -149.5 27.5t-114.5 55.5t-73 75t-26 84zM524 1049 q0 -45 12.5 -78t35 -59.5t53 -47t69.5 -39.5l111 471q-129 0 -205 -66.5t-76 -180.5zM608 72q135 -4 219 70.5t84 203.5q0 92 -45 156.5t-137 107.5z" />
<glyph unicode="%" horiz-adv-x="1691" d="M272 915q0 66 21.5 149t70 155.5t127 123t191.5 50.5q80 0 134 -26t85 -48q16 -14 34.5 -20.5t59.5 -6.5h367q51 0 91 25.5t83 68.5l51 52l62 -49l-1239 -1440l-64 57l1045 1217h-443q6 -23 8 -53.5t2 -57.5q0 -63 -19 -144t-65.5 -153t-124 -122t-192.5 -50 q-80 0 -134 23.5t-88 62.5t-48.5 88t-14.5 98zM430 868q0 -25 4 -53.5t17.5 -53t39 -40.5t68.5 -16q49 0 85 27.5t62.5 71.5t45 97t30 104.5t15.5 95t4 66.5q0 25 -3 53.5t-15.5 53t-37 41t-65.5 16.5q-68 0 -116 -58.5t-77.5 -135t-43 -154.5t-13.5 -115zM1014 248 q0 66 21.5 148.5t69.5 155.5t127 123t191 50q72 0 124 -21.5t86 -60.5t50.5 -89.5t16.5 -109.5q0 -63 -19.5 -144t-65.5 -152.5t-124 -122t-193 -50.5q-80 0 -134 24t-88 62.5t-48 88t-14 98.5zM1171 201q0 -25 4.5 -53.5t17.5 -53t38.5 -41t68.5 -16.5q49 0 85 27.5 t63 71.5t45 97.5t29.5 104.5t15.5 95t4 67q0 25 -3 53.5t-15.5 53t-37 41t-65.5 16.5q-68 0 -116 -58.5t-77.5 -135.5t-43 -154.5t-13.5 -114.5z" />
<glyph unicode="&#x26;" horiz-adv-x="1484" d="M195 332q0 94 36.5 162.5t93 118t122 83t120.5 60.5q-31 53 -51 126.5t-20 127.5q0 90 29.5 160.5t78.5 119.5t114.5 76t135.5 27q59 0 113.5 -17.5t94.5 -50.5t63.5 -82t23.5 -113q0 -74 -32 -128t-85 -96t-122.5 -74.5t-145.5 -63.5q53 -98 140 -215t192 -227 q66 68 109.5 137t71.5 136t41 131.5t19 123.5q86 41 158 33q23 -68 16.5 -116t-30.5 -95q-51 -100 -132 -194.5t-208 -209.5q33 -31 71.5 -67.5t84.5 -70.5t97.5 -60.5t108.5 -36.5l-8 -51l-102 4q-123 4 -211 48t-162 116q-115 -94 -216.5 -136.5t-217.5 -42.5 q-100 0 -174 31t-122 81t-71.5 114.5t-23.5 130.5zM389 352q0 -51 19.5 -101t55.5 -89t88 -62.5t118 -23.5q90 0 167 37t136 90q-111 117 -205 241.5t-168 249.5q-20 -8 -56 -33.5t-71 -66.5t-59.5 -101.5t-24.5 -140.5zM659 1073q0 -59 19.5 -129t54.5 -123 q49 25 96.5 57.5t82 74.5t56 93.5t21.5 108.5q0 31 -8 60.5t-25.5 53t-45 38t-68.5 14.5q-33 0 -66 -16.5t-59.5 -49t-42 -77.5t-15.5 -105z" />
<glyph unicode="'" horiz-adv-x="442" d="M401 961l25 452q4 53 28.5 80t84.5 27q66 0 85 -27t-1 -80l-164 -452h-58z" />
<glyph unicode="(" horiz-adv-x="716" d="M290 281.5q-1 156.5 38 334.5q41 180 103.5 330t147.5 256.5t192.5 162.5t238.5 52l-11 -51q-72 -12 -146.5 -57t-144 -133.5t-131 -223.5t-104.5 -325q-49 -213 -46 -368t35 -257t80 -154.5t91 -62.5l-12 -47q-104 8 -178 78.5t-113 189.5t-40 275.5z" />
<glyph unicode=")" horiz-adv-x="716" d="M-23 -262l11 47q72 12 146.5 58t144 135.5t131 224.5t104.5 325q49 213 46 367t-34.5 255t-80 153.5t-91.5 62.5l13 51q104 -8 177.5 -78.5t112.5 -189.5t41 -275.5t-39 -334.5q-39 -180 -102 -330t-148 -256.5t-192.5 -162.5t-239.5 -52z" />
<glyph unicode="*" horiz-adv-x="843" d="M299 903q-33 72 35 94l246 84q18 6 18 17.5t-20 19.5l-177 64q-39 14 -42 42.5t20 59.5q29 39 52.5 41t41.5 -16l139 -144q12 -12 21.5 -7t9.5 26l-4 200q0 31 18.5 47.5t65.5 16.5q41 0 56.5 -17.5t0.5 -48.5l-90 -198q-10 -23 -1 -28t28 9l186 146q55 43 92 -23 q23 -39 13.5 -61.5t-37.5 -32.5l-244 -80q-23 -8 -28 -18.5t14 -18.5l196 -80q27 -10 30 -36.5t-26 -61.5q-51 -63 -94 -14l-129 145q-16 16 -25.5 7t-9.5 -25l4 -215q0 -39 -21.5 -53.5t-59.5 -14.5q-47 0 -61.5 23.5t1.5 58.5l90 201q8 18 1 27.5t-29 -9.5l-172 -145 q-70 -59 -109 18z" />
<glyph unicode="+" horiz-adv-x="1187" d="M201 453v118h426v433h139v-433h426v-118h-426v-453h-139v453h-426z" />
<glyph unicode="," horiz-adv-x="552" d="M98 -238q55 53 97.5 114t48.5 122q4 33 -4.5 56.5t-18.5 45.5q-8 18 -16 39t-8 43q0 43 32.5 75t81.5 34q29 0 50.5 -12.5t37 -32t23.5 -44.5t8 -50q0 -70 -28.5 -130.5t-72.5 -112.5t-96.5 -98.5t-99.5 -84.5z" />
<glyph unicode="-" horiz-adv-x="802" d="M240 442l28 144h502l-29 -144h-501z" />
<glyph unicode="." horiz-adv-x="552" d="M172 92q0 63 37 101t96 38q55 0 86 -33.5t31 -80.5q0 -66 -37 -104t-96 -38q-55 0 -86 34t-31 83z" />
<glyph unicode="/" horiz-adv-x="552" d="M72 -31l553 1479h145l-553 -1479h-145z" />
<glyph unicode="0" d="M195 418q0 80 10 164t29.5 165.5t47 158.5t62.5 143q84 154 196.5 249t272.5 95q123 0 195.5 -45t110.5 -113t49.5 -146.5t11.5 -144.5q0 -55 -8.5 -129t-25 -155.5t-44 -166.5t-64.5 -163q-82 -168 -191.5 -261.5t-275.5 -93.5q-109 0 -181.5 38t-115.5 100.5t-61 142.5 t-18 162zM379 332q0 -156 53 -220.5t139 -64.5q66 0 116 37t90 98.5t71 142.5t55 167q25 84 43.5 170t28.5 160.5t15 130.5t5 83q0 61 -8 113.5t-28.5 90.5t-55.5 59.5t-88 21.5q-55 0 -103 -32t-89 -88t-76 -131t-64 -161q-27 -84 -47 -167t-32.5 -158.5t-18.5 -140 t-6 -111.5z" />
<glyph unicode="1" d="M223 0l13 59l186 15q53 4 67 73l232 1037q6 29 2 47t-27 20l-198 21l16 49l420 72l16 -13l-278 -1233q-10 -43 4 -59t39 -18l182 -11l-12 -59h-662z" />
<glyph unicode="2" d="M68 20q20 59 54 119t89 122.5t136 131t198 148.5q109 74 187.5 139t132 131t79 133.5t25.5 140.5q0 39 -6.5 81t-27 76t-58 56.5t-101.5 22.5q-82 0 -152.5 -64.5t-121.5 -207.5q-6 -20 -18.5 -36t-41.5 -16q-35 0 -67.5 27t-32.5 72q0 43 30.5 95t88 97t138.5 75t181 30 q84 0 156 -20.5t125 -62.5t83 -104.5t30 -148.5q0 -98 -38 -171t-102.5 -132.5t-148.5 -110.5t-178 -106q-176 -102 -279.5 -194.5t-151.5 -190.5h512q35 0 58.5 4t44 16t40 35.5t46.5 60.5l61 -12l-110 -256h-838z" />
<glyph unicode="3" d="M111 227q0 51 34.5 82t69.5 31q45 0 61 -64q35 -123 102.5 -176t164.5 -53q49 0 104 20.5t101.5 67.5t76 126t29.5 196q0 35 -9 80t-33 85t-65.5 67.5t-109.5 27.5q-66 0 -116 -10.5t-70 -10.5q-25 0 -32 13.5t-7 31.5q0 27 12 51.5t33 24.5q29 0 78 -11t120 -11 q61 0 114.5 24.5t91.5 67.5t60.5 100t22.5 123q0 31 -7 66.5t-26.5 68.5t-57.5 54.5t-99 21.5q-84 0 -143.5 -58.5t-98.5 -156.5q-23 -55 -63 -55q-27 0 -59 23.5t-32 70.5q0 43 31 87t86 80t129 58.5t160 22.5q61 0 129 -14.5t123 -49.5t92 -93.5t37 -148.5q0 -84 -35 -142 t-88 -97t-116.5 -58.5t-123.5 -23.5v-6q45 -6 95.5 -26.5t92.5 -59.5t69.5 -97.5t27.5 -140.5q0 -119 -45 -206t-119 -143t-169 -84t-197 -28q-109 0 -190 26t-133 63.5t-77.5 81.5t-25.5 81z" />
<glyph unicode="4" d="M137 422q199 248 402.5 487.5t421.5 458.5h139l-187 -891h201l-20 -94h-201l-51 -246q-8 -37 1 -53t40 -18l102 -7l-14 -59h-541l16 59l152 11q25 2 43 15t27 52l51 246h-563zM309 477h430l150 697l-4 4q-154 -164 -297.5 -341.5t-278.5 -359.5z" />
<glyph unicode="5" d="M121 221q0 49 33.5 82t74.5 33t58 -60q35 -129 103.5 -179t164.5 -50q63 0 121.5 31t104.5 86t74 134t28 173q0 143 -64.5 226t-179.5 83q-82 0 -149.5 -34.5t-120.5 -100.5l-50 25l150 682l20 16h699l10 -22l-86 -129h-508q-27 0 -41 -7.5t-24 -42.5l-111 -383l4 -4 q53 43 129 68.5t146 25.5q180 0 284.5 -99t104.5 -279q0 -111 -43 -206t-118 -165t-176.5 -110t-217.5 -40q-106 0 -185.5 24t-131.5 59.5t-77.5 79.5t-25.5 83z" />
<glyph unicode="6" d="M186 424q0 109 18.5 220.5t52.5 212.5t80 189.5t99 151.5q86 98 190.5 146.5t219.5 48.5q102 0 169.5 -23.5t108.5 -57.5t58.5 -73t17.5 -68q0 -43 -37 -68.5t-71 -25.5q-29 0 -42.5 15.5t-17.5 42.5q-39 186 -192 186q-147 0 -259 -165t-173 -464h4q29 31 66.5 60.5 t81.5 53t93 39t101 15.5q90 0 157.5 -27.5t113.5 -77.5t68.5 -118t22.5 -148q0 -88 -31.5 -180t-94 -165.5t-158 -121t-224.5 -47.5q-119 0 -199.5 37t-130 98.5t-71 143.5t-21.5 170zM377 344q0 -43 8 -95t32.5 -96t69.5 -75t119 -31q59 0 115.5 31t99.5 89t70 143t27 196 q0 115 -60.5 184.5t-165.5 69.5q-147 0 -231 -108.5t-84 -307.5z" />
<glyph unicode="7" d="M338 1085l86 283h860l16 -22q-41 -96 -87 -173t-100 -147t-114.5 -141.5t-132.5 -157.5q-55 -68 -101 -137.5t-82 -149.5t-63.5 -173t-46.5 -208q-8 -49 -31.5 -66.5t-78.5 -17.5q-98 0 -98 76q0 55 20.5 122t69.5 154t134 198.5t214 258.5q131 147 201.5 254t97.5 179 h-494q-80 0 -116.5 -20.5t-59.5 -57.5l-33 -54h-61z" />
<glyph unicode="8" d="M166 326q0 94 30.5 169.5t81 131t117 89.5t137.5 42v8q-70 29 -118.5 92.5t-48.5 165.5q0 92 36.5 161.5t96 116t136.5 69t159 22.5q106 0 177.5 -29t115.5 -73t62.5 -98.5t18.5 -107.5q0 -76 -24.5 -133t-64.5 -97t-91 -65.5t-104 -35.5v-6q33 -12 70.5 -38t69.5 -66 t53.5 -94t21.5 -126q0 -94 -31 -176t-93.5 -142.5t-155.5 -95.5t-220 -35q-115 0 -197 30t-134 79t-76.5 111.5t-24.5 130.5zM362 309q0 -123 63.5 -192.5t180.5 -69.5q72 0 127 33t92 88t56.5 129t19.5 156q0 117 -61.5 183t-167.5 66q-70 0 -126.5 -31.5t-97 -86 t-63.5 -125t-23 -150.5zM547 977q0 -39 10 -74t31.5 -62.5t58.5 -44t88 -16.5t97.5 27t80 75t53 112.5t19.5 140.5q0 74 -44 130t-140 56q-68 0 -116 -34t-79 -86t-45 -111.5t-14 -112.5z" />
<glyph unicode="9" d="M176 197q0 55 34 84.5t66 29.5q25 0 38.5 -16t21.5 -45q29 -111 82 -157t127 -46q98 0 166.5 64.5t119.5 171.5q53 111 81 214t42 195h-4q-70 -70 -145.5 -108.5t-169.5 -38.5q-76 0 -142.5 25.5t-115.5 71.5t-77 111.5t-28 145.5q0 115 39 207t103.5 155.5t150.5 97.5 t178 34q117 0 199 -39t133 -107.5t74.5 -164t19.5 -210.5q-6 -221 -62 -396t-157 -300q-78 -98 -177 -149.5t-234 -51.5q-86 0 -154 21.5t-114 54.5t-70.5 72t-24.5 74zM463 926q0 -55 12 -105.5t42 -88.5t79 -61.5t121 -23.5q117 0 187.5 79t70.5 214q0 78 -9.5 147.5 t-36 122t-72.5 82t-118 29.5q-55 0 -105 -25.5t-88 -75t-60.5 -123t-22.5 -171.5z" />
<glyph unicode=":" horiz-adv-x="552" d="M172 92q0 63 37 101t96 38q55 0 86 -33.5t31 -80.5q0 -66 -37 -104t-96 -38q-55 0 -86 34t-31 83zM334 864q0 63 37 101.5t96 38.5q55 0 86 -34t31 -81q0 -66 -37 -103.5t-96 -37.5q-55 0 -86 33.5t-31 82.5z" />
<glyph unicode=";" horiz-adv-x="552" d="M98 -238q55 53 97.5 114t48.5 122q4 33 -4.5 56.5t-18.5 45.5q-8 18 -16 39t-8 43q0 43 32.5 75t81.5 34q29 0 50.5 -12.5t37 -32t23.5 -44.5t8 -50q0 -70 -28.5 -130.5t-72.5 -112.5t-96.5 -98.5t-99.5 -84.5zM334 864q0 63 37 101.5t96 38.5q55 0 86 -34t31 -81 q0 -66 -37 -103.5t-96 -37.5q-55 0 -86 33.5t-31 82.5z" />
<glyph unicode="&#x3c;" horiz-adv-x="1167" d="M176 424v166l979 428v-141l-858 -369l858 -369v-137z" />
<glyph unicode="=" horiz-adv-x="1167" d="M190 227v119h992v-119h-992zM190 678v119h992v-119h-992z" />
<glyph unicode="&#x3e;" horiz-adv-x="1167" d="M176 2v137l858 369l-858 369v141l979 -428v-166z" />
<glyph unicode="?" horiz-adv-x="870" d="M307 92q0 63 37 101t96 38q55 0 86 -33.5t31 -80.5q0 -66 -37 -104t-96 -38q-55 0 -86 34t-31 83zM328 584q0 72 53 131t160 121q145 86 209.5 190t64.5 201q0 63 -28.5 106t-92.5 43q-37 0 -67.5 -17.5t-55 -46t-45 -67.5t-37.5 -82q-14 -39 -63 -39q-25 0 -57.5 22.5 t-32.5 67.5q0 31 22.5 72t65.5 77t108.5 60.5t151.5 24.5q150 0 236 -71.5t86 -188.5q0 -66 -18.5 -114t-53.5 -85t-83 -66.5t-108 -60.5q-100 -51 -166.5 -107.5t-66.5 -136.5q0 -66 40 -92t91 -26q29 0 49.5 2t38.5 4l12 -35q-35 -25 -91 -44t-109 -19q-39 0 -77 9 t-68.5 30.5t-49 55.5t-18.5 81z" />
<glyph unicode="@" horiz-adv-x="1626" d="M221 375q0 195 69.5 348.5t185.5 260t264.5 162.5t306.5 56q145 0 261.5 -47t197.5 -128t124 -190.5t43 -234.5q0 -104 -38 -195.5t-102.5 -158t-147 -104.5t-173.5 -38q-45 0 -78.5 13.5t-50 46.5t-14.5 86t29 135l-4 2q-20 -39 -60.5 -88t-90.5 -93t-107.5 -74 t-116.5 -28q-23 0 -47.5 8.5t-44 28t-31.5 52t-12 81.5q0 39 13 95.5t40 120t69 127t99 113.5t131 82t164 32q35 0 59.5 -5t52.5 -22l9 17h133l-135 -529q-18 -74 4 -98.5t65 -24.5q51 0 101.5 34t90.5 91.5t65.5 130t25.5 152.5q2 127 -38 224t-110.5 165t-167 102.5 t-204.5 34.5q-154 0 -278 -62.5t-211 -165t-134 -234.5t-47 -273q0 -94 28.5 -196.5t97 -187.5t183.5 -140.5t287 -55.5q90 0 183 17.5t163 46.5l16 -51q-96 -53 -209.5 -72.5t-209.5 -19.5q-129 0 -254 39.5t-223.5 119.5t-160 203t-61.5 289zM752 307q0 -104 69 -104 q55 0 114.5 60.5t114 146.5t94.5 181t54 167q-23 16 -44 22t-52 6q-80 0 -145.5 -57t-110.5 -135t-69.5 -159t-24.5 -128z" />
<glyph unicode="A" horiz-adv-x="1277" d="M-47 0l12 59l68 9q25 4 44 10t37.5 20.5t38 40t44.5 64.5q29 47 71.5 121.5t92 160.5t98.5 173t88 155l344 604h145l152 -1233q8 -63 21.5 -88.5t60.5 -29.5l78 -7l-13 -59h-504l13 59l108 11q31 4 43.5 19t8.5 61l-48 397h-458q-57 -104 -109.5 -202.5t-101.5 -199.5 q-16 -31 -10 -51t36 -24l113 -11l-12 -59h-461zM539 625h407l-72 602h-4q-84 -150 -166.5 -299.5t-164.5 -302.5z" />
<glyph unicode="B" horiz-adv-x="1294" d="M78 0l12 59l115 13q37 4 56.5 25.5t29.5 72.5l241 1077q7 29 7 48q0 15 -5 25q-10 20 -45 26l-120 12l12 59h493q111 0 207.5 -13t163.5 -54q66 -39 97.5 -100.5t31.5 -141.5q0 -57 -22.5 -113.5t-69.5 -102.5t-119.5 -79t-175.5 -45l-2 -6q55 -10 110.5 -35t99.5 -64.5 t71.5 -99t27.5 -139.5q0 -63 -23.5 -138t-88 -138.5t-180 -105.5t-302.5 -42h-622zM489 147q-1 -23 19 -39q20 -18 62 -27t118 -9q102 0 176 31.5t120 83t67.5 116.5t21.5 133q0 88 -30.5 144.5t-83 89t-122 45t-145.5 12.5h-80l-116 -524q-7 -34 -7 -56zM627 799h133 q84 0 158.5 18.5t125.5 56.5q53 43 87 103.5t34 138.5q0 109 -69.5 169.5t-198.5 60.5q-51 0 -81 -2.5t-46 -10.5t-22.5 -22.5t-12.5 -36.5z" />
<glyph unicode="C" horiz-adv-x="1353" d="M233 563q0 106 28 240.5t112 271.5q45 72 109.5 139.5t153.5 119.5t204.5 83t259.5 31q53 0 114.5 -6t122 -20.5t116.5 -34t99 -48.5l-73 -307h-62q1 16 1 32q0 145 -68 224q-74 88 -267 88q-166 0 -285.5 -81t-197.5 -210q-37 -61 -64.5 -132.5t-46 -146.5t-27.5 -150.5 t-9 -145.5q0 -119 30.5 -207t84 -146.5t129 -87t163.5 -28.5q94 0 164 24.5t123 68.5t96 107.5t86 139.5h62l-101 -326q-98 -49 -201.5 -67.5t-214.5 -18.5q-190 0 -314 55.5t-196.5 141.5t-101.5 191.5t-29 205.5z" />
<glyph unicode="D" horiz-adv-x="1562" d="M82 0l12 59l115 13q37 4 55.5 25.5t28.5 72.5l244 1077q5 26 5 45q0 18 -4 28q-10 22 -44 28l-121 10l12 60h551q172 0 306 -36t224 -112q88 -74 132 -188.5t44 -239.5q0 -92 -24.5 -215t-112.5 -256q-55 -84 -128.5 -152.5t-170 -117t-219.5 -75t-276 -26.5h-629z M489 176q-4 -15 -4 -28q-1 -14 5 -26q10 -22 33.5 -32t57 -14t76.5 -4q127 0 225.5 22.5t174.5 64.5t133 101t100 131q70 115 101.5 239t31.5 257q0 61 -12 140t-59 148.5t-139.5 118.5t-251.5 52q-68 0 -109 -2.5t-64.5 -9.5t-34 -22.5t-16.5 -41.5z" />
<glyph unicode="E" horiz-adv-x="1220" d="M78 0l12 59l115 13q37 4 54 24.5t30 73.5l246 1081q6 27 6 46q1 18 -5 28q-12 21 -47 25l-122 8l14 59h1036l-78 -342h-61q7 82 7 124q-1 47 -21 80q-22 34 -72.5 50.5t-147.5 16.5h-247q-27 0 -38 -11.5t-20 -48.5l-116 -510h268q68 0 108.5 7.5t67.5 26.5t43 53t37 87 h61l-94 -428h-61q2 28 2 51q0 17 -1 32q-3 34 -19.5 54.5t-54.5 29.5t-106 9h-268l-104 -448q-15 -66 -15 -97q1 -3 1 -5q2 -30 24 -50q20 -16 87 -21t142 -5q94 0 162 9t118 40t90 88t79 151h61l-104 -360h-1069z" />
<glyph unicode="F" horiz-adv-x="1169" d="M78 0l12 59l115 11q37 4 55.5 25.5t28.5 68.5l246 1089q5 20 5 36q0 52 -51 57l-120 12l12 59h1042l-77 -338h-62q7 80 7 122q-1 47 -21 79q-22 33 -72.5 49.5t-146.5 16.5h-252q-29 0 -39 -11.5t-21 -50.5l-123 -536h271q68 0 108.5 7t67.5 26.5t43 54t37 88.5h61 l-94 -430h-61q2 28 2 51q0 17 -1 31q-3 34 -19.5 54.5t-54.5 30t-106 9.5h-270l-115 -506q-5 -23 -5 -40q0 -18 6 -28q10 -22 46 -26l154 -11l-12 -59h-596z" />
<glyph unicode="G" horiz-adv-x="1452" d="M233 584q0 135 46.5 287.5t148.5 281.5q109 137 279 216t405 79q129 0 247 -25.5t212 -76.5l-74 -320h-61q2 27 2 54q0 38 -4 76q-9 63 -42.5 112t-101 78.5t-180.5 29.5q-184 0 -308 -79.5t-201 -200.5t-109.5 -262.5t-32.5 -264.5q0 -135 32.5 -235.5t90 -165 t136.5 -96t171 -31.5q80 0 128 9t73.5 24.5t36 35t16.5 42.5l76 309q8 30 8 50q0 15 -5 23q-10 21 -38 25l-154 14l12 60h539l-12 -60l-90 -8q-27 -4 -39.5 -27.5t-24.5 -76.5l-96 -414q-88 -33 -205 -55.5t-229 -22.5q-143 0 -264 37t-213 115q-80 70 -127.5 189.5 t-47.5 273.5z" />
<glyph unicode="H" horiz-adv-x="1587" d="M82 0l12 59l113 13q37 4 55.5 24.5t30.5 73.5l246 1077q5 23 5 40q0 57 -50 63l-121 8l14 59h561l-14 -59l-113 -10q-39 -4 -56 -27t-30 -74l-108 -471h684l106 471q5 23 5 40q0 57 -50 63l-121 8l15 59h561l-15 -59l-112 -10q-39 -4 -56.5 -27t-29.5 -74l-246 -1077 q-7 -28 -7 -47q0 -15 5 -27q10 -24 47 -28l121 -9l-12 -59h-561l12 59l112 13q37 4 55.5 24.5t30.5 73.5l121 528h-684l-119 -528q-5 -26 -5 -45q0 -17 4 -29q10 -24 47 -28l120 -9l-12 -59h-561z" />
<glyph unicode="I" horiz-adv-x="706" d="M82 0l12 59l113 13q37 4 56.5 26.5t29.5 71.5l246 1077q6 24 6 43q0 55 -51 60l-121 8l14 59h561l-14 -59l-113 -10q-39 -4 -57.5 -29t-28.5 -72l-246 -1077q-5 -24 -5 -43q0 -17 4 -29q10 -26 47 -30l120 -9l-12 -59h-561z" />
<glyph unicode="J" horiz-adv-x="720" d="M-88 -188q78 8 140.5 31.5t115.5 70.5q96 90 164 381l223 958q5 23 5 40.5t-5 28.5q-10 21 -47 26l-121 10l14 59h564l-15 -59l-112 -8q-39 -4 -57.5 -27t-28.5 -70l-240 -1030q-35 -154 -89 -245t-126 -142q-31 -23 -71 -37t-83 -24.5t-86 -14.5t-77 -4q-16 0 -34 1 t-34 3v52z" />
<glyph unicode="K" horiz-adv-x="1331" d="M82 0l12 59l113 13q37 4 56.5 26.5t29.5 71.5l246 1077q6 24 6 43q0 55 -51 60l-121 8l14 59h561l-14 -59l-113 -10q-39 -4 -57.5 -29t-28.5 -72l-110 -485l4 -4q160 135 311.5 263t298.5 263q32 31 32 48t-30 20l-78 6l8 59h510l-8 -59q-61 -4 -105 -12.5t-79 -22.5 t-70 -35.5t-78 -52.5q-141 -98 -272 -203.5t-270 -222.5q33 -68 73.5 -145.5t88 -157.5t98.5 -157t102 -142q29 -35 52.5 -62.5t51 -47t60.5 -32t76 -16.5l-15 -59l-100 2q-59 2 -106 11t-88 30.5t-77 55.5t-73 83q-94 129 -171 275.5t-148 291.5h-5l-129 -569 q-5 -24 -5 -43q0 -17 4 -29q10 -26 47 -30l120 -9l-12 -59h-561z" />
<glyph unicode="L" horiz-adv-x="1157" d="M82 0l12 59l113 13q37 4 55.5 24.5t30.5 73.5l246 1077q6 26 6 45q1 18 -5 28q-12 22 -46 28l-121 10l14 59h571l-14 -59l-123 -8q-39 -4 -57.5 -28t-30.5 -75l-227 -997q-14 -64 -14 -95v-7q2 -30 24 -50q20 -16 87 -21t142 -5q86 0 149.5 9t113 40t88.5 88t78 151h61 l-105 -360h-1048z" />
<glyph unicode="M" horiz-adv-x="1884" d="M63 0l11 59l63 7q45 4 74 21t47 67q18 51 35.5 111.5t36.5 142.5l192 839q6 27 6 45t-5 28q-11 22 -46 26l-121 12l15 59h397q27 -137 57.5 -272t59.5 -275l114 -567h7l362 553q94 143 183 281.5t171 279.5h402l-15 -59l-112 -8q-39 -4 -56.5 -27t-29.5 -76l-246 -1077 q-5 -26 -5 -44t4 -28q9 -22 46 -26l121 -13l-12 -59h-557l12 59l112 13q37 4 55.5 24.5t31.5 73.5l251 1071h-6l-796 -1216h-58l-246 1216h-4l-188 -833q-18 -82 -28.5 -142.5t-14.5 -111.5q-1 -7 -1 -13q0 -37 22 -53q24 -18 73 -22l80 -7l-10 -59h-484z" />
<glyph unicode="N" horiz-adv-x="1562" d="M63 0l11 59l63 7q47 4 75 21t46 67q18 51 35.5 111.5t36.5 142.5l192 839q6 27 6 45t-5 28q-11 22 -46 26l-121 12l15 59h389q129 -289 260 -574.5t264 -574.5h8l168 742q18 82 28.5 142t14.5 112q1 7 1 14q0 40 -22 52q-24 16 -73 20l-80 8l10 59h484l-11 -59l-63 -6 q-47 -4 -74.5 -21.5t-46.5 -66.5q-18 -51 -35.5 -111.5t-36.5 -142.5l-229 -1010h-133q-141 313 -282.5 623.5t-286.5 623.5h-7l-192 -839q-18 -82 -28.5 -142.5t-14.5 -111.5q-1 -7 -1 -13q0 -37 22 -53q24 -18 73 -22l80 -7l-10 -59h-484z" />
<glyph unicode="O" horiz-adv-x="1542" d="M233 553q0 102 29 238.5t113 279.5q45 74 105.5 142.5t140 120.5t180 83t223.5 31q127 0 235.5 -35t187.5 -107.5t124 -186t45 -271.5q0 -31 -4 -82t-18.5 -116.5t-40 -140.5t-66.5 -151q-43 -76 -99.5 -146.5t-134 -123.5t-181 -86t-238.5 -33q-154 0 -266.5 44 t-186.5 122t-111 184.5t-37 233.5zM449 471q0 -215 100 -322.5t266 -107.5q100 0 177 32.5t136.5 89t102.5 131.5t74 157q63 164 79.5 289.5t16.5 213.5q0 217 -99.5 319.5t-269.5 102.5q-82 0 -149.5 -26.5t-125 -72.5t-102.5 -108.5t-80 -136.5q-72 -150 -99 -291 t-27 -270z" />
<glyph unicode="P" horiz-adv-x="1257" d="M82 0l12 59l113 13q37 4 55.5 24.5t30.5 73.5l246 1077q6 26 6 45q1 18 -5 28q-12 22 -46 28l-121 10l14 59h479q102 0 196.5 -16.5t166.5 -57.5q76 -43 121 -121t45 -182q0 -117 -54.5 -214t-152.5 -156q-88 -53 -206 -75t-249 -22h-151l-93 -403q-5 -25 -5 -43 q0 -17 4 -29q10 -22 47 -26l141 -13l-12 -59h-582zM609 687q1 -13 11 -23q12 -10 39 -14.5t80 -4.5q209 0 325 105.5t116 326.5q0 131 -77 200t-231 69q-39 0 -62.5 -4.5t-37.5 -12.5t-20.5 -21.5t-10.5 -33.5l-125 -543q-7 -30 -7 -44z" />
<glyph unicode="Q" horiz-adv-x="1542" d="M233 553q0 102 29 238.5t113 279.5q45 74 105.5 142.5t140 120.5t180 83t223.5 31q127 0 235.5 -35t187.5 -107.5t124 -186t45 -271.5q0 -31 -4 -82t-18.5 -116.5t-40 -140.5t-66.5 -151q-37 -68 -85 -130t-111.5 -112t-145.5 -87t-187 -52q18 -29 54.5 -73.5t81.5 -89.5 q74 -74 152 -119q74 -43 170 -43h9l7 -35q-27 -16 -70 -24.5t-84 -8.5q-84 0 -177 35t-171 100q-66 55 -121 124t-90 134q-123 14 -214 63.5t-151.5 125.5t-90.5 174t-30 213zM449 471q0 -215 100 -322.5t266 -107.5q100 0 177 32.5t136.5 89t102.5 131.5t74 157 q63 164 79.5 289.5t16.5 213.5q0 217 -99.5 319.5t-269.5 102.5q-82 0 -149.5 -26.5t-125 -72.5t-102.5 -108.5t-80 -136.5q-72 -150 -99 -291t-27 -270z" />
<glyph unicode="R" horiz-adv-x="1310" d="M82 0l12 59l113 13q37 4 55.5 24.5t30.5 73.5l246 1077q6 26 6 45q1 18 -5 28q-12 22 -46 28l-121 10l14 59h553q143 0 231.5 -30.5t135.5 -78.5t63 -107t16 -114q0 -76 -30.5 -140t-86 -113.5t-133 -82t-171.5 -44.5v-5q70 -18 108.5 -53t56 -81t20.5 -102t3 -118v-34 q0 -136 29 -183q18 -31 57 -48t107 -24l-19 -59h-160q-98 0 -147 40t-59 118q-8 57 -9.5 113.5t-1.5 107.5v93t-4 69q-12 70 -65 100q-23 16 -64 21.5t-92 5.5h-123l-113 -498q-6 -28 -6 -48q1 -16 5 -26q10 -22 47 -26l120 -11l-12 -59h-561zM618 739h132q199 0 310 92.5 t111 276.5q0 68 -21.5 113t-56 72.5t-81.5 40t-97 12.5q-57 0 -90.5 -4.5t-50 -13.5t-23 -23.5t-12.5 -36.5z" />
<glyph unicode="S" horiz-adv-x="1091" d="M141 137l54 314h59q-1 -14 -1 -27q1 -85 23 -152q26 -77 72.5 -128.5t111 -77t134.5 -25.5q78 0 135 25.5t96 67.5t58.5 95.5t19.5 108.5q0 123 -69.5 197.5t-192.5 134.5q-61 31 -115.5 65.5t-94.5 78.5t-63.5 100.5t-23.5 127.5q0 66 23.5 136.5t78 131t144.5 99.5 t225 39q47 0 98.5 -6t99.5 -19.5t92 -33t77 -46.5l-74 -286h-59q4 37 4 70q1 107 -45 169q-60 80 -207 80q-68 0 -120 -20.5t-89 -55t-56.5 -82t-19.5 -102.5q0 -57 24.5 -101t63.5 -78t85 -59.5t91 -48.5q156 -80 231.5 -174t75.5 -233q0 -82 -24.5 -163t-84.5 -145.5 t-159.5 -104.5t-249.5 -40q-55 0 -118.5 11.5t-122 33t-107.5 53t-80 70.5z" />
<glyph unicode="T" horiz-adv-x="1241" d="M281 1075l77 342h1164l-78 -342h-62q7 76 7 122q1 49 -21 82q-22 34 -72.5 50.5t-146.5 16.5h-129l-266 -1180q-5 -24 -5 -42q0 -16 5 -28q10 -24 53 -28l149 -9l-14 -59h-631l15 59l133 9q47 4 67.5 27.5t30.5 70.5l266 1180h-141q-76 0 -129 -13.5t-92 -44.5t-66.5 -83 t-52.5 -130h-61z" />
<glyph unicode="U" horiz-adv-x="1626" d="M346 266q-7 38 -7 82q0 78 23 176l173 723q6 26 6 45q1 18 -5 28q-12 22 -47 28l-120 10l14 59h561l-14 -59l-113 -8q-39 -4 -56.5 -27t-29.5 -76l-162 -696q-27 -117 -27 -203q0 -20 2 -38q8 -98 47.5 -158t106 -85.5t152.5 -25.5q106 0 181 39t126 105.5t84 155.5 t57 191l166 715q6 27 6 45q0 16 -5 28q-11 22 -46 28l-121 10l15 59h561l-14 -59l-113 -10q-39 -4 -56.5 -26t-29.5 -75l-174 -741q-43 -178 -109.5 -284.5t-151.5 -163t-183.5 -73t-202.5 -16.5q-131 0 -236.5 30t-171.5 95.5t-86 171.5z" />
<glyph unicode="V" horiz-adv-x="1304" d="M268 1358l11 59h512l-11 -59l-131 -12q-29 -4 -34 -21.5t-1 -46.5q12 -129 27.5 -261t34.5 -267l72 -545h4l292 510q129 225 205 362t109 207q16 35 10 47t-35 17l-112 10l10 59h450l-10 -59q-41 -2 -68.5 -7t-48 -14.5t-37 -26t-32.5 -42.5q-61 -96 -150.5 -242.5 t-189.5 -318.5l-416 -707h-141l-86 655q-20 154 -39 304.5t-37 291.5q-8 55 -24.5 73.5t-51.5 23.5z" />
<glyph unicode="W" horiz-adv-x="1937" d="M248 1358l12 59h518l-14 -59l-133 -12q-25 -2 -36 -16.5t-7 -49.5l67 -1030h11l555 1130h143l104 -1130h9l245 514q94 197 151.5 322.5t82.5 187.5q12 33 9 49t-28 20l-133 15l11 59h458l-10 -59q-47 -4 -75.5 -10.5t-49 -18.5t-36 -34.5t-38.5 -59.5q-14 -25 -39.5 -73 t-59.5 -114.5t-74 -147.5t-83 -169l-356 -731h-143l-107 1128h-10l-561 -1128h-144l-90 1262q-4 47 -14 64t-45 22z" />
<glyph unicode="X" horiz-adv-x="1294" d="M-2 0l12 59q47 4 80 9.5t57.5 14.5t45 24.5t45.5 42.5q45 47 103 114.5t122.5 143t131.5 155.5t126 152q-31 70 -62.5 146.5t-62.5 150t-58.5 141.5t-50.5 117q-12 27 -26.5 42t-34.5 24.5t-51 13.5t-78 8l12 59h533l-13 -59l-106 -8q-43 -4 -43 -39q0 -15 8 -35 q41 -98 83 -202.5t85 -205.5h4q47 55 98.5 115.5t97.5 118t84 106.5t60 78q20 27 16 43.5t-34 20.5l-88 8l12 59h471l-12 -59q-82 -6 -122 -18.5t-75 -41.5q-43 -39 -103.5 -100t-125 -132t-129 -144.5t-117.5 -137.5q37 -82 77 -174t78.5 -178t70.5 -157.5t50 -110.5 q16 -33 32 -52.5t39.5 -29.5t56 -14.5t83.5 -8.5l-12 -59h-553l10 59l107 11q44 4 44 38q0 15 -9 35q-47 117 -99.5 238t-105.5 244h-8q-51 -61 -106.5 -132t-107 -138.5t-94.5 -126t-71 -99.5q-13 -18 -13 -31q0 -22 41 -26l117 -13l-12 -59h-510z" />
<glyph unicode="Y" horiz-adv-x="1210" d="M268 1358l13 59h510l-13 -59l-112 -10q-42 -5 -42 -40q0 -9 3 -20l186 -629h6q61 82 125 172.5t122 174.5t107.5 158.5t77.5 125.5q10 18 10 30q0 25 -40 30l-107 8l12 59h469l-12 -59q-43 -2 -71.5 -8.5t-51 -16.5t-43 -29.5t-49.5 -50.5q-41 -47 -98.5 -118.5 t-121 -155.5t-128 -174t-123.5 -176q-16 -23 -31.5 -52.5t-25.5 -70.5l-78 -346q-5 -22 -5 -37.5t5 -26.5q10 -20 47 -24l156 -13l-13 -59h-635l13 59l147 15q41 4 57.5 23.5t26.5 62.5l78 344q7 30 7 57t-7 51q-51 170 -99 334t-102 318q-10 31 -19 47t-26.5 25.5 t-46.5 13.5t-78 8z" />
<glyph unicode="Z" horiz-adv-x="1273" d="M31 27q305 334 603 663.5t591 655.5h-400q-86 0 -143 -9.5t-99 -39t-74 -83t-63 -143.5h-61l76 346h1040l10 -26q-305 -334 -604 -664t-592 -655h416q121 0 203 9t138 40t97 88t82 151h62l-105 -360h-1169z" />
<glyph unicode="[" horiz-adv-x="675" d="M213 -262l381 1679h326l-11 -55q-70 -4 -110.5 -9t-63 -17.5t-32 -32t-17.5 -54.5l-307 -1343q-8 -35 -7 -54.5t17.5 -32t54 -17.5t105.5 -9l-10 -55h-326z" />
<glyph unicode="\" horiz-adv-x="798" d="M254 1448h145l432 -1479h-145z" />
<glyph unicode="]" horiz-adv-x="675" d="M29 -262l10 55q72 4 111.5 9t62.5 17.5t32 32t17 54.5l307 1343q8 35 8.5 54.5t-17 32t-55.5 17.5t-106 9l11 55h325l-381 -1679h-325z" />
<glyph unicode="^" horiz-adv-x="1167" d="M242 467l401 901h158l391 -901h-156l-315 752l-324 -752h-155z" />
<glyph unicode="_" horiz-adv-x="1024" d="M0 -154h1024v-102h-1024v102z" />
<glyph unicode="`" horiz-adv-x="819" d="M371 1393q0 16 8 31.5t20.5 27.5t25.5 20.5t26 8.5q27 0 55.5 -18.5t75.5 -65.5l243 -246l-30 -41l-310 172q-47 27 -80.5 52.5t-33.5 58.5z" />
<glyph unicode="a" horiz-adv-x="1159" d="M135 219q0 68 19.5 154t59.5 176t99.5 176t139 153.5t181 108.5t222.5 41q41 0 82 -12t68 -31l10 27h172l-217 -817q-12 -43 -13 -73q0 -4 1 -8q2 -32 32 -32q23 0 48.5 23.5t51 57.5t48 71.5t37.5 64.5l49 -29q-27 -57 -61 -111.5t-77 -94t-93 -64.5t-109 -25 q-83 -1 -103 59q-7 22 -8 52q0 49 21 119l69 233h-4q-45 -78 -102.5 -159.5t-125 -149.5t-143 -111t-157.5 -43q-51 0 -89 20.5t-61.5 55.5t-35 79t-11.5 89zM338 225q0 -59 19.5 -101t70.5 -42q37 0 78 24.5t85 66.5t88 98.5t87 121.5q41 61 74.5 129t61.5 135.5t48.5 132 t34.5 121.5q-49 45 -125 45q-80 0 -150.5 -38.5t-128 -101t-103.5 -141.5t-76.5 -160t-47 -157.5t-16.5 -132.5z" />
<glyph unicode="b" horiz-adv-x="1155" d="M168 0l301 1309q9 38 9 59q0 12 -3 18q-8 18 -47 23l-117 14l13 47l366 50l10 -11l-227 -903h4q59 104 125 184t133.5 132.5t134 79t123.5 26.5q115 0 167 -71.5t52 -186.5q0 -35 -7 -85t-22.5 -109.5t-41 -126t-64.5 -134.5q-37 -68 -88 -129t-115.5 -108t-142.5 -75 t-168 -28q-88 0 -158.5 39t-99.5 105l-63 -119h-74zM420 223q0 -78 45 -127t123 -49q76 0 136 42t107.5 107.5t81 147.5t56 160t33 144.5t10.5 103.5q0 170 -111 170q-47 0 -98 -30t-100.5 -79t-94.5 -109.5t-80 -121.5q-49 -90 -78.5 -187.5t-29.5 -171.5z" />
<glyph unicode="c" horiz-adv-x="913" d="M166 303q0 84 18.5 170t54 167t87 151.5t118 123t146.5 83t170 30.5q57 0 105 -13.5t84 -38t55.5 -58t19.5 -72.5q0 -25 -13.5 -46.5t-34 -36.5t-43 -23.5t-40.5 -8.5q-29 0 -42 16.5t-17 45.5q-10 92 -42 127.5t-81 35.5q-70 0 -132.5 -58t-109.5 -148.5t-73.5 -198 t-26.5 -207.5q0 -55 7 -103t26.5 -85t55.5 -58.5t91 -21.5q51 0 99 24.5t90 60.5t77 78t62 76l49 -39q-53 -88 -111.5 -146t-118 -92t-120 -48.5t-117.5 -14.5q-53 0 -105.5 16.5t-94.5 54.5t-67.5 100.5t-25.5 156.5z" />
<glyph unicode="d" horiz-adv-x="1212" d="M147 246q0 61 18.5 143t56.5 169t95.5 171t134 150.5t175 107.5t217.5 41q53 0 98 -9t74 -26l4 4l78 330q8 33 8 50q0 9 -2 15q-6 16 -43 19l-123 12l12 47l365 50l10 -11l-324 -1314q-11 -45 -11 -76v-5q1 -32 32 -32q23 0 48.5 23.5t51 57.5t48 71.5t36.5 64.5l49 -29 q-27 -57 -60.5 -110.5t-75.5 -94t-92 -65.5t-105 -25q-78 1 -102 59q-10 26 -10 61q0 46 17 108l68 243h-4q-45 -82 -101.5 -165.5t-124 -151.5t-146.5 -111t-167 -43q-61 0 -101 24t-63.5 61.5t-32 87t-8.5 98.5zM350 229q0 -70 26.5 -108.5t76.5 -38.5q41 0 86 26.5 t89 70.5t87 100.5t80 115.5q78 129 128.5 265t73.5 255q-18 16 -56 28.5t-85 12.5q-82 0 -151.5 -38.5t-126 -100t-98.5 -141.5t-71.5 -160t-44 -155.5t-14.5 -131.5z" />
<glyph unicode="e" horiz-adv-x="937" d="M164 311q0 129 44 256t126 228q86 104 197.5 168.5t250.5 64.5q127 0 190.5 -61.5t63.5 -143.5q0 -43 -15 -93t-71 -103q-33 -31 -79 -61.5t-114.5 -60.5t-163.5 -57.5t-224 -54.5q-2 -10 -2 -17v-16q0 -61 9 -112t30.5 -90t57.5 -60.5t89 -21.5q57 0 107.5 22.5t92.5 57 t76.5 75.5t61.5 78l47 -41q-51 -86 -110.5 -142t-120 -90t-122 -47.5t-116.5 -13.5q-45 0 -98.5 12.5t-99.5 48.5t-76.5 102.5t-30.5 172.5zM373 463q129 29 219 69.5t146.5 90t81 105t24.5 108.5t-33 86.5t-86 33.5q-61 0 -118.5 -42t-105.5 -111.5t-82 -158.5t-46 -181z " />
<glyph unicode="f" horiz-adv-x="655" d="M-147 -377q0 39 28.5 71t63.5 32q20 0 32.5 -14.5t22.5 -30.5q41 -63 66.5 -82t42.5 -19q8 0 15 4t15 18.5t17.5 42t17.5 74.5l238 1207h-183l23 78h178l21 75q23 82 54.5 161t78.5 138q51 66 118.5 104t167.5 38q47 0 89 -12.5t74 -34t51.5 -51t19.5 -62.5 q0 -39 -35 -64.5t-65 -25.5q-23 0 -35.5 9t-20.5 26q-35 74 -65.5 108.5t-71.5 34.5q-43 0 -74.5 -48t-60.5 -165l-58 -231h267l-21 -78h-258l-190 -863q-33 -147 -67 -252.5t-77 -174t-99 -100.5t-134 -32q-37 0 -69.5 9.5t-58.5 25t-42 38t-16 46.5z" />
<glyph unicode="g" horiz-adv-x="1032" d="M61 -197q0 63 30 111.5t76 83.5t102.5 56.5t107.5 29.5v4q-63 29 -104.5 65.5t-41.5 88.5q0 31 20.5 55.5t49.5 42.5t60.5 31.5t56.5 23.5v4q-23 8 -52.5 27.5t-56 50.5t-45 74t-18.5 100q0 55 20.5 121t71.5 122t135 95t209 39q76 0 144.5 -17.5t109.5 -43.5l297 82 l12 -19l-67 -129l-172 -24q43 -55 43 -142q0 -80 -29 -146.5t-85 -115.5t-139 -76.5t-190 -27.5q-23 0 -51.5 1t-58.5 5q-37 -10 -63.5 -30.5t-26.5 -49.5q0 -43 59 -69.5t188 -57.5q358 -86 359 -322q0 -84 -39 -148.5t-106.5 -107.5t-159 -64.5t-195.5 -21.5 q-98 0 -180 21.5t-142.5 60.5t-94.5 94.5t-34 122.5zM250 -178q0 -55 22.5 -100.5t63.5 -78t97 -50t124 -17.5q57 0 108.5 14.5t89.5 43t60.5 71.5t22.5 102q0 63 -40 107.5t-97.5 72t-121 43t-112.5 21.5q-31 -4 -69 -20.5t-70.5 -44t-55 -68.5t-22.5 -96zM438 616 q0 -78 44 -127t126 -49q57 0 104.5 27t80 74t50 109t17.5 134q0 53 -17.5 87t-42 52.5t-53 25.5t-51.5 7q-74 0 -123 -34.5t-78.5 -87t-43 -110.5t-13.5 -108z" />
<glyph unicode="h" horiz-adv-x="1253" d="M188 -25l299 1334q9 38 9 59q0 12 -3 18q-8 18 -47 23l-116 14l12 47l369 50l10 -11l-229 -938h6q49 92 112.5 175t135 145.5t146.5 99.5t148 37q61 0 99.5 -23.5t53.5 -64.5q12 -34 12 -77v-17q-3 -53 -21 -115l-162 -536q-13 -41 -13 -70v-11q3 -32 33 -32 q23 0 48.5 23.5t51 57.5t48 71.5t37.5 64.5l49 -29q-27 -57 -60.5 -111.5t-75.5 -94t-89 -64.5t-101 -25q-88 -1 -112 59q-11 27 -10 62q0 44 16 101l168 581q9 32 9 58q-1 26 -9 46q-18 40 -66 40q-68 0 -136.5 -51.5t-128.5 -125t-107.5 -154.5t-69.5 -140 q-18 -49 -34.5 -96.5t-32 -99.5t-33 -114.5t-37.5 -140.5z" />
<glyph unicode="i" horiz-adv-x="659" d="M246 32q-11 28 -12 63q0 36 12 81l172 641q9 34 9 53q0 10 -3 18q-8 18 -49 23l-117 11l12 49l373 57l10 -10l-223 -823q-12 -43 -13 -73q0 -4 1 -8q2 -32 33 -32q23 0 48 23.5t50.5 57.5t48.5 71.5t37 64.5l49 -29q-27 -57 -60.5 -111.5t-75.5 -94t-91 -64.5t-105 -25 q-84 1 -106 57zM500 1329q0 49 33.5 92t99.5 43q43 0 76.5 -26.5t33.5 -85.5q0 -61 -35.5 -99.5t-95.5 -38.5q-47 0 -79.5 29t-32.5 86z" />
<glyph unicode="j" horiz-adv-x="643" d="M-123 -377q0 39 28.5 71t63.5 32q20 0 31.5 -13.5t22.5 -27.5q41 -61 69.5 -85t46.5 -24q33 0 47 64l250 1169q10 42 10 65q0 6 -1 10q-3 23 -39 27l-127 11l12 49l366 57l11 -10l-232 -1024q-31 -137 -66.5 -234.5t-78.5 -152.5q-43 -53 -95.5 -78t-123.5 -25 q-80 0 -136.5 34t-58.5 85zM504 1329q0 49 33.5 92t99.5 43q43 0 77 -26.5t34 -85.5q0 -61 -36 -99.5t-96 -38.5q-47 0 -79.5 29t-32.5 86z" />
<glyph unicode="k" horiz-adv-x="1126" d="M188 -25l318 1334q9 38 9 59q0 12 -3 18q-8 18 -47 23l-117 14l12 47l367 50l10 -11l-360 -1509zM522 547q72 88 152 171t166 159q78 66 151.5 108.5t134.5 42.5q59 0 83 -29.5t24 -70.5q0 -39 -28.5 -75t-71.5 -36q-16 0 -32 5t-26 12q-35 23 -56.5 30.5t-43.5 7.5 q-27 0 -68 -28.5t-84 -66.5t-79.5 -79t-59.5 -65q59 -205 154 -400q39 -80 63.5 -112.5t50.5 -32.5q41 0 81 55.5t83 147.5l51 -27q-47 -129 -115.5 -209t-166.5 -80q-74 0 -123 48.5t-94 146.5q-43 94 -80 186.5t-66 190.5z" />
<glyph unicode="l" horiz-adv-x="636" d="M238 32q-11 28 -12 63q0 36 12 81l280 1133q10 38 10 59q0 12 -3 18q-9 18 -48 23l-117 14l13 47l366 50l11 -11l-330 -1316q-10 -44 -11 -72q0 -5 1 -9q2 -30 30 -30q18 0 44 20.5t51.5 53t50 70.5t43.5 73l49 -29q-25 -57 -59.5 -110.5t-77.5 -94t-93.5 -65.5 t-103.5 -25q-84 1 -106 57z" />
<glyph unicode="m" horiz-adv-x="1878" d="M201 -25l211 838q10 42 10 65v6q-2 22 -39 27l-125 11l12 49l371 57l10 -10l-129 -424h6q53 96 115 176t128.5 137.5t137 89t140.5 31.5q109 0 139 -79q12 -31 12 -72q0 -64 -29 -154l-41 -129h9q111 199 245 316.5t273 117.5q63 0 101 -23.5t54 -64.5q15 -37 15 -83v-11 q-2 -53 -21 -115l-157 -536q-13 -44 -13 -75v-6q2 -32 33 -32q23 0 48.5 23.5t51 57.5t48 71.5t36.5 64.5l50 -29q-27 -57 -61 -111.5t-76 -94t-92 -64.5t-105 -25q-79 1 -107 53q-14 26 -14 64q0 37 14 84l176 602q10 34 10 61q0 25 -9 44q-19 39 -70 39q-63 0 -129 -49.5 t-124.5 -121t-105.5 -152.5t-75 -146q-20 -47 -37 -94.5t-34 -100.5t-34.5 -116.5t-40.5 -141.5l-178 -25l53 201l152 574q14 53 14 89q0 28 -9 45q-20 38 -67 38q-63 0 -130.5 -51.5t-127 -125t-107.5 -157.5t-75 -152q-16 -41 -30.5 -85t-31 -96t-34 -114.5t-39.5 -140.5z " />
<glyph unicode="n" horiz-adv-x="1275" d="M201 -25l215 838q10 39 10 61q0 6 -1 10q-3 22 -40 27l-127 11l12 49l375 57l10 -10l-133 -447h6q47 90 107.5 173t131.5 145.5t145.5 100.5t148.5 38q63 0 100 -23.5t53 -64.5q14 -35 14 -78v-16q-3 -53 -22 -115l-159 -536q-13 -44 -12 -75q-1 -3 -1 -6q2 -32 33 -32 q23 0 48.5 23.5t51 57.5t48 71.5t36.5 64.5l49 -29q-27 -57 -60.5 -111.5t-76.5 -94t-93 -64.5t-107 -25q-85 -1 -107 57q-11 28 -10 63q0 37 12 81l176 600q8 30 8 57q0 25 -7 45q-15 44 -68 44q-61 0 -127 -49.5t-126.5 -122t-108.5 -155.5t-77 -149q-20 -47 -37.5 -93 t-34 -98t-35 -114.5t-40.5 -140.5z" />
<glyph unicode="o" horiz-adv-x="1110" d="M172 346q0 45 11.5 112.5t37 143.5t70.5 151.5t111.5 137t158.5 99.5t213 38q61 0 127 -16.5t119 -57.5t87 -109.5t34 -174.5q0 -41 -7.5 -93.5t-22.5 -108.5t-39.5 -115.5t-59.5 -114.5q-72 -115 -183.5 -189t-279.5 -74q-96 0 -168 27t-118 76t-68.5 117.5t-22.5 150.5 zM371 264q0 -111 47 -164t137 -53q70 0 126 41t99 106.5t74 145.5t50.5 156.5t28.5 142t9 102.5q0 96 -38 155.5t-132 59.5q-68 0 -124 -35.5t-100 -94t-78 -133.5t-55.5 -151.5t-32.5 -149.5t-11 -128z" />
<glyph unicode="p" horiz-adv-x="1218" d="M117 -496l286 1309q9 41 9 64v7q-2 23 -39 27l-127 11l12 49l371 57l10 -10l-117 -432h6q59 111 125 193.5t133.5 138t133 83t124.5 27.5q115 0 171.5 -69.5t56.5 -204.5q0 -39 -12.5 -112t-42 -160t-77.5 -176t-119 -162.5t-167 -121t-221 -47.5q-80 0 -134.5 12.5 t-86.5 32.5l-113 -491zM432 109q35 -29 78 -45.5t102 -16.5q84 0 150.5 41t117 105.5t87.5 144.5t59.5 158.5t32.5 146.5t10 109q0 82 -27.5 126t-83.5 44q-43 0 -92 -29t-97 -75t-93 -106.5t-82 -125.5q-29 -51 -54.5 -113.5t-46 -127t-36 -126t-25.5 -110.5z" />
<glyph unicode="q" horiz-adv-x="1155" d="M150 219q0 70 17 157t55 177t95.5 176t136 152.5t182 106.5t230.5 40q72 0 124 -15.5t77 -29.5l88 92h78l-365 -1530l-190 -41l203 885h-7q-57 -94 -122.5 -171t-135 -131t-139 -83t-133.5 -29q-37 0 -72.5 13.5t-62.5 42t-43 75t-16 113.5zM352 252q0 -72 21.5 -121 t77.5 -49q63 0 144 63.5t167 173.5q84 111 148.5 263.5t101.5 330.5q-23 16 -58.5 29.5t-85.5 13.5q-84 0 -155.5 -37.5t-129 -99t-100.5 -139.5t-72.5 -156t-44 -149.5t-14.5 -122.5z" />
<glyph unicode="r" horiz-adv-x="833" d="M213 -25l188 838q9 43 9 65v6q-2 22 -39 27l-127 11l12 49l352 57l10 -10l-92 -340h4q84 166 182.5 258t184.5 92q49 0 70.5 -24.5t21.5 -65.5q-2 -45 -29.5 -86t-66.5 -41q-25 0 -41 8t-31.5 17.5t-31 17.5t-39.5 8q-29 0 -62 -31.5t-66.5 -90t-65.5 -140.5t-60 -182 q-25 -90 -52.5 -204t-54.5 -214z" />
<glyph unicode="s" horiz-adv-x="806" d="M111 170q0 41 29.5 76t76.5 35t66 -62q25 -82 76 -127t108 -45q66 0 106.5 41t40.5 113q0 59 -37.5 122.5t-103.5 116.5q-80 66 -130 136.5t-50 150.5q0 61 22.5 116.5t65.5 96.5t104.5 64.5t139.5 23.5q68 0 117 -16.5t80.5 -40t47 -51t15.5 -52.5q0 -47 -34 -70.5 t-65 -23.5q-41 0 -57 41q-63 141 -164 141q-57 0 -92 -42t-35 -91q0 -43 27 -96t119 -129q102 -84 145 -156.5t43 -156.5q0 -63 -24.5 -119.5t-69.5 -98.5t-110.5 -67t-149.5 -25q-74 0 -130.5 18.5t-96 46.5t-60 62.5t-20.5 67.5z" />
<glyph unicode="t" horiz-adv-x="708" d="M254 32q-10 27 -10 60q0 38 12 84l184 750h-170l23 78h166l26 100l199 158l25 -15l-70 -243h260l-22 -78h-256l-183 -746q-7 -28 -7 -51q0 -9 1 -17q4 -30 37 -30q25 0 54.5 22.5t59 56.5t56.5 70.5t45 67.5l45 -35q-31 -57 -71 -109.5t-87 -92t-102 -63.5t-117 -24 q-78 1 -98 57z" />
<glyph unicode="u" horiz-adv-x="1275" d="M255 156q3 54 19 116l142 541q10 38 10 60q0 7 -1 11q-3 24 -40 27l-127 11l12 49l373 57l10 -10l-196 -756q-15 -58 -16 -98q0 -82 67 -82q63 0 126.5 46t122 116.5t107.5 154.5t82 162q20 47 36.5 92t34 97.5t35 114t40.5 139.5l182 24l-219 -835q-10 -38 -10 -66 q0 -7 1 -13q3 -32 35 -32q23 0 48.5 24.5t52 58.5t50 70.5t38.5 63.5l49 -31q-27 -57 -62.5 -109.5t-79.5 -93t-94.5 -65.5t-105.5 -25q-83 1 -103 59q-8 24 -8 56q0 46 17 107l67 233h-4q-45 -88 -107.5 -171t-132 -145.5t-145.5 -100.5t-149 -38q-61 0 -96 24 q-36 23 -50 63q-12 33 -12 76q0 9 1 18z" />
<glyph unicode="v" horiz-adv-x="1054" d="M244 922l12 49l362 57l11 -10l-178 -793q-7 -32 -6 -56q0 -31 11 -51q21 -34 60 -36h4q61 0 135 60q76 62 143.5 156.5t115 210.5t51.5 220q2 30 2 58q-1 45 -5 83q-6 62 -22 115q33 20 73 31.5t77 11.5q6 0 16 -13.5t21.5 -36t18.5 -51t7 -59.5q0 -47 -18.5 -110.5 t-50 -135t-74.5 -146.5t-97 -146q-53 -72 -112.5 -136.5t-122 -112.5t-129 -77t-131.5 -29q-88 -1 -130 63q-24 37 -24 101q0 46 12 105l125 569q8 41 8 63q-1 6 -1 10q-2 22 -37 25z" />
<glyph unicode="w" horiz-adv-x="1617" d="M250 922l10 49l367 57l10 -10l-180 -770q-10 -42 -10 -73q0 -34 12 -54q22 -39 61 -39q61 0 130 66.5t132 162.5q45 68 79 148t62.5 167t54.5 181t50 190l176 13l-143 -645q-21 -96 -21 -160q0 -30 4 -52q14 -71 84 -71q61 0 133 64.5t134.5 163t103.5 216t41 224.5 q0 66 -4 124t-20 111q33 20 71.5 31.5t75.5 11.5q6 0 16.5 -13.5t21.5 -35t18 -51t7 -60.5q0 -45 -17 -107.5t-47 -134t-72 -148.5t-93 -150q-49 -74 -103.5 -137.5t-111.5 -111.5t-117.5 -76t-124.5 -28q-92 0 -132 56.5t-40 142.5q0 43 11.5 103.5t21.5 115.5l-4 4 q-45 -92 -101.5 -169.5t-118 -133t-127 -87.5t-128.5 -32q-43 0 -78 16.5t-55.5 50.5t-24.5 86q-1 10 -1 22q0 45 13 104l130 559q9 40 9 61q0 6 -1 12q-4 20 -39 25z" />
<glyph unicode="x" horiz-adv-x="1067" d="M63 80q0 37 24 69.5t65 32.5q27 0 46 -11t35 -19q14 -8 28.5 -13.5t31.5 -5.5q37 0 92 71.5t121 184.5l57 98l-74 297q-8 35 -15 55.5t-15 32t-18.5 13.5t-24.5 2l-154 -10l-6 49l338 102l12 -8l82 -344h4l90 139q29 43 59.5 81t64.5 67.5t71 47t78 17.5q43 0 73.5 -20.5 t30.5 -67.5q0 -41 -26.5 -69.5t-61.5 -28.5q-18 0 -33.5 5t-31.5 11q-31 16 -58 16q-23 0 -52.5 -27.5t-61 -70.5t-63.5 -95t-60 -101l65 -269q16 -68 28.5 -112.5t24 -70.5t22.5 -36t26 -10q23 0 43 18.5t40.5 47t40 64.5t37.5 71l54 -29q-23 -47 -50.5 -96t-61.5 -90 t-78 -67t-99 -26q-78 0 -116 64.5t-66 187.5l-37 160h-4l-82 -135q-31 -51 -63 -101.5t-67.5 -89t-77.5 -62.5t-95 -24q-61 0 -96.5 30t-35.5 75z" />
<glyph unicode="y" horiz-adv-x="968" d="M-10 -383q0 45 31.5 83t72.5 40q23 0 38 -12.5t34 -36.5q23 -31 42 -47.5t42 -16.5q31 0 66.5 40t64.5 106q35 82 42 144.5t7 109.5q0 61 -7 158.5t-18.5 202t-22.5 200.5t-20 155q-12 80 -24 111t-47 29l-139 -4l-7 51l344 98l17 -8q10 -55 22.5 -158.5t23.5 -227.5 t20.5 -258t15.5 -251h6q51 88 98 172t85 157.5t65.5 135t40.5 104.5q10 33 15 71t8 76t3 73.5v62.5q39 27 85 39t75 12q10 0 23.5 -31t13.5 -84q0 -31 -21.5 -81t-57.5 -113.5t-80 -135t-87 -143.5q-47 -78 -93 -155.5t-85 -144t-67.5 -118t-45.5 -77.5q-68 -117 -119 -200 t-98 -137t-97 -79t-116 -25q-68 0 -108.5 36t-40.5 77z" />
<glyph unicode="z" horiz-adv-x="968" d="M80 37q0 25 12 55.5t37 54.5q166 170 344 348.5t375 376.5h-361q-37 0 -62.5 -11t-47 -34.5t-41 -57.5t-43.5 -79l-51 23q35 106 74.5 184t62.5 107h665l17 -29q-186 -182 -361.5 -362.5t-347.5 -360.5q41 -4 91.5 -21.5t101.5 -35.5q57 -23 120.5 -41.5t110.5 -18.5 q35 0 61.5 21.5t50 56.5t43 80t38.5 92l57 -14q-20 -80 -42.5 -153t-52.5 -126t-68 -85t-87 -32q-72 0 -145.5 25t-155.5 57q-92 35 -146.5 65t-78.5 30q-27 0 -27 -37v-90q0 -12 -11 -21.5t-26.5 -15.5t-32 -9.5t-26.5 -3.5q-27 0 -37 20.5t-10 41.5z" />
<glyph unicode="{" horiz-adv-x="696" d="M276 -80q-2 61 25 133t68 166q25 55 47 113.5t22 106.5t-33.5 79t-121.5 33l16 53q88 2 134 34t67.5 81t25.5 110.5t6 122.5q4 94 19.5 179.5t55.5 148.5t110.5 100t185.5 37h35l-14 -51q-92 -6 -144.5 -41t-72.5 -90q-20 -53 -23.5 -113.5t-5.5 -107.5q-2 -86 -6 -157 t-26.5 -124t-72 -91t-139.5 -58v-13q80 -16 112 -53t30.5 -92t-29 -127t-66.5 -158q-12 -25 -25.5 -54.5t-25.5 -61t-19.5 -63.5t-4.5 -58q2 -47 37.5 -78t123.5 -37l-16 -51h-23q-43 0 -87 8t-79.5 29.5t-59 56.5t-26.5 88z" />
<glyph unicode="|" horiz-adv-x="552" d="M338 -31v1479h139v-1479h-139z" />
<glyph unicode="}" horiz-adv-x="696" d="M31 -262l14 51q92 6 143.5 41t73.5 90q20 53 23.5 113.5t5.5 107.5q2 86 6 157t26.5 125t71.5 91t140 57v13q-80 16 -112 53t-31 92t29 127t66 158q12 25 25.5 54.5t26 61t19.5 63.5t5 58q-2 47 -38 78t-124 37l17 51h20q43 0 87 -8t80 -29.5t59.5 -56.5t25.5 -88 q2 -61 -24.5 -133t-67.5 -166q-25 -55 -47.5 -113.5t-22.5 -105.5t34 -79t122 -34l-16 -53q-88 -2 -134.5 -34t-68 -81t-24.5 -110.5t-7 -122.5q-4 -94 -18.5 -179t-53 -148.5t-109.5 -100.5t-190 -37h-32z" />
<glyph unicode="~" horiz-adv-x="1167" d="M272 412q18 39 41 77.5t54.5 69.5t73.5 50.5t98 19.5q47 0 95 -14.5t95 -32.5q47 -16 91 -31.5t81 -15.5q27 0 46.5 6t36.5 19t34.5 35.5t40.5 55.5l82 -51q-43 -94 -100.5 -150.5t-145.5 -56.5q-45 0 -95 15.5t-100 31.5q-49 18 -96 32.5t-88 14.5q-59 0 -93 -31.5 t-67 -95.5z" />
<glyph unicode="&#xa1;" horiz-adv-x="491" d="M40 -405.5q-11 38.5 9 100.5l287 880h57l-112 -890q-8 -55 -36 -92t-110 -37q-84 0 -95 38.5zM309 887q0 66 37 103.5t96 37.5q55 0 86 -34t31 -83q0 -63 -37 -101t-96 -38q-55 0 -86 34t-31 81z" />
<glyph unicode="&#xa2;" d="M264 563q2 117 42 233.5t114 211t179.5 155t238.5 64.5l30 143l84 -2l-28 -141q55 -2 109 -16.5t97.5 -41t69 -63.5t25.5 -82q0 -25 -12.5 -42t-30 -28.5t-37 -16.5t-35.5 -5q-45 0 -55 51q-18 82 -62.5 125t-85.5 45l-202 -889q96 0 179 40t169 147l45 -39 q-78 -119 -187.5 -175.5t-226.5 -58.5l-49 -221h-84l49 221q-49 2 -108.5 20.5t-110.5 62.5t-85 118t-32 184zM459 567q0 -51 6 -97t24.5 -83t51 -64.5t84.5 -39.5l196 870q-88 0 -155.5 -61.5t-112.5 -150.5t-68.5 -191.5t-25.5 -182.5z" />
<glyph unicode="&#xa3;" d="M90 10l47 82q55 18 112.5 43t107 56.5t87 72.5t56.5 94q16 45 17 101.5t-17 136.5h-250l18 78h219q-23 68 -38 146.5t-13 156.5q2 82 29 157.5t81 133t134 91.5t188 34q84 0 145.5 -20.5t102.5 -51.5t60.5 -65.5t19.5 -63.5q0 -27 -11 -46.5t-26.5 -30.5t-34 -16 t-32.5 -5q-27 0 -37.5 16t-14.5 35q-25 86 -80 131t-129 45q-102 0 -159.5 -73.5t-61.5 -184.5q-4 -104 21.5 -197.5t50.5 -191.5h303l-18 -78h-277q4 -57 -8 -121q-14 -80 -76.5 -164t-191.5 -155l2 -9h444q39 0 65.5 10.5t46 27t34 36t28.5 35.5l53 -20l-131 -236h-860z " />
<glyph unicode="&#xa4;" horiz-adv-x="1353" d="M-37 516l25 113h164q2 29 6 57.5t10 56.5h-154l27 117h158q16 45 35.5 89t48.5 89q43 70 105.5 134.5t147.5 114.5t195.5 80t249.5 30q51 0 109.5 -6.5t117 -19.5t111.5 -32.5t96 -46.5l-69 -295h-60q8 162 -65.5 245t-257.5 83q-160 0 -274 -75.5t-187 -200.5 q-27 -43 -47.5 -90.5t-36.5 -98.5h534l-26 -117h-539q-6 -29 -11 -57.5t-9 -56.5h532l-25 -113h-514l-2 -20q-12 -113 16.5 -198t84 -141.5t131.5 -84t162 -27.5q90 0 156.5 23.5t117.5 66.5t92 103.5t82 134.5h60l-97 -314q-94 -47 -194.5 -64.5t-204.5 -17.5 q-176 0 -293 49.5t-186.5 126t-100 173t-34.5 190.5h-187z" />
<glyph unicode="&#xa5;" d="M219 383l21 74h307l33 180h-306l21 74h266l-137 514q-8 29 -20.5 53.5t-41.5 26.5l-71 4l14 59h451l-13 -59l-86 -4q-35 -2 -45 -15.5t-4 -42.5l123 -536h4q104 154 201.5 288t157.5 232q23 35 22.5 51t-26.5 18l-105 9l12 59h396l-13 -59l-43 -2q-41 -2 -75.5 -26 t-73.5 -77l-371 -493h285l-19 -74h-319l-43 -180h334l-19 -74h-331l-56 -254q-10 -53 51 -59l123 -11l-12 -59h-541l13 59l123 11q25 2 43 16t24 43l57 254h-311z" />
<glyph unicode="&#xa6;" horiz-adv-x="552" d="M338 -31v658h139v-658h-139zM338 881v567h139v-567h-139z" />
<glyph unicode="&#xa7;" d="M184 -47q0 27 10.5 45t26 30.5t32.5 17.5t30 5q23 0 34 -15.5t21 -37.5q20 -49 47 -81t54.5 -49.5t56 -24.5t53.5 -7q68 0 122 48t56 134q0 29 -4 64t-26.5 77t-68.5 91t-130 104q-86 55 -135.5 108.5t-76 102.5t-32.5 92t-6 80q4 135 83 246t193 188q4 37 25.5 85.5 t64.5 91.5t110 71.5t159 28.5q72 0 125 -16.5t87.5 -41t51 -53t16.5 -55.5q0 -23 -10 -39t-25.5 -25.5t-32 -13.5t-30.5 -4q-18 0 -30.5 13.5t-22.5 37.5q-27 59 -71 92t-101 33q-72 0 -125 -49t-56 -125q0 -18 4.5 -46t24 -61.5t60 -75.5t114.5 -89q70 -45 119 -89 t81 -92.5t46 -101.5t14 -117q-4 -139 -77.5 -250.5t-172.5 -199.5q-6 -68 -32.5 -125t-73.5 -99t-113.5 -67t-152.5 -25q-76 0 -134.5 17.5t-99.5 45.5t-61.5 60.5t-20.5 65.5zM371 831q-2 -78 42 -159.5t169 -169.5q125 -86 197.5 -168t86.5 -160q51 39 93.5 98.5 t44.5 151.5q2 100 -52.5 186t-154.5 158q-111 78 -183.5 151.5t-85.5 157.5q-59 -31 -107 -94t-50 -152z" />
<glyph unicode="&#xa8;" horiz-adv-x="819" d="M424 1272q0 55 35 90t86 35q47 0 72.5 -31t25.5 -70q0 -53 -32.5 -89t-86.5 -36q-49 0 -74.5 28t-25.5 73zM850 1272q0 55 35 90t86 35q47 0 72.5 -31t25.5 -70q0 -53 -32.5 -89t-86.5 -36q-49 0 -74.5 28t-25.5 73z" />
<glyph unicode="&#xa9;" horiz-adv-x="1712" d="M258 709q0 154 58.5 289t160 234t237.5 157.5t290 58.5t290 -58.5t237 -157.5t159.5 -234t58.5 -289t-58.5 -289t-159.5 -234.5t-237.5 -158t-289.5 -58.5q-154 0 -290 58.5t-237.5 158t-160 234.5t-58.5 289zM389 709q0 -135 48 -254t131 -206t194.5 -137.5t241.5 -50.5 q129 0 241.5 50.5t195.5 137.5t130 206t47 254t-47 253.5t-130 205.5t-195.5 137.5t-241.5 50.5t-241 -50.5t-195 -137.5t-131 -205.5t-48 -253.5zM614 713q0 186 108.5 299.5t324.5 113.5q74 0 149.5 -16t122.5 -47v-201h-41q-8 41 -21.5 79t-40 66.5t-68.5 45t-106 16.5 q-70 0 -120 -27.5t-81.5 -74.5t-46 -107.5t-14.5 -128.5q0 -66 13.5 -131t44 -118.5t83 -86.5t132.5 -33q100 0 156.5 50.5t84.5 160.5h41l-22 -204q-41 -29 -112 -46.5t-169 -17.5q-113 0 -192.5 31t-130 86t-73 130t-22.5 161z" />
<glyph unicode="&#xaa;" horiz-adv-x="870" d="M229 698q0 63 31 151.5t90.5 168.5t150.5 135t210 55q37 0 63.5 -6t48.5 -20l6 16h150l-143 -493q-10 -37 -10.5 -56.5t18.5 -19.5q16 0 33.5 14t35 34.5t34 43t26.5 39.5l41 -25q-41 -82 -107.5 -137t-146.5 -55q-49 0 -69.5 34.5t-2.5 98.5l41 139h-6 q-27 -43 -63.5 -90t-82 -88t-98.5 -67.5t-112 -26.5q-76 0 -107 47t-31 108zM391 700q0 -72 62 -71q25 0 51 15t55 40t55.5 57.5t51.5 69.5q53 78 90 162.5t57 150.5q-20 27 -86 27q-76 0 -138.5 -50t-106.5 -121t-67.5 -148.5t-23.5 -131.5z" />
<glyph unicode="&#xab;" horiz-adv-x="946" d="M233 489.5q3 18.5 15 30.5l346 371l41 -35l-209 -334q-20 -33 -8 -69l112 -338l-47 -31l-243 373q-10 14 -7 32.5zM632 489.5q3 18.5 15 30.5l346 371l41 -35l-209 -334q-20 -33 -8 -69l113 -338l-47 -31l-244 373q-10 14 -7 32.5z" />
<glyph unicode="&#xac;" horiz-adv-x="1167" d="M190 678v119h992v-588h-140v469h-852z" />
<glyph unicode="&#xad;" horiz-adv-x="802" d="M240 442l28 144h502l-29 -144h-501z" />
<glyph unicode="&#xae;" horiz-adv-x="1712" d="M258 709q0 154 58.5 289t160 234t237.5 157.5t290 58.5t290 -58.5t237 -157.5t159.5 -234t58.5 -289t-58.5 -289t-159.5 -234.5t-237.5 -158t-289.5 -58.5q-154 0 -290 58.5t-237.5 158t-160 234.5t-58.5 289zM389 709q0 -135 48 -254t131 -206t194.5 -137.5t241.5 -50.5 q129 0 241.5 50.5t195.5 137.5t130 206t47 254t-47 253.5t-130 205.5t-195.5 137.5t-241.5 50.5t-241 -50.5t-195 -137.5t-131 -205.5t-48 -253.5zM666 326v41l63 8q27 4 34 17.5t7 39.5v563q0 29 -7 43.5t-34 18.5l-63 8v41h368q74 0 125 -14.5t83 -40t45 -61.5t13 -77 q0 -86 -56 -133t-142 -61v-4q47 -12 74.5 -31.5t45 -45.5t25.5 -55.5t15 -64.5q8 -45 21 -74.5t34 -52.5q12 -12 30.5 -20.5t41.5 -14.5v-30h-91q-66 0 -99.5 22.5t-49.5 65.5q-23 61 -31 120.5t-22 88.5q-29 61 -123 61h-70v-252q0 -27 8.5 -40t36.5 -17l62 -8v-41h-344z M903 741h78q78 0 127 35t49 121q0 47 -14.5 77t-37 46t-52 22.5t-58.5 6.5q-63 0 -77.5 -10.5t-14.5 -32.5v-265z" />
<glyph unicode="&#xaf;" horiz-adv-x="819" d="M467 1223l37 120h569l-37 -120h-569z" />
<glyph unicode="&#xb0;" horiz-adv-x="819" d="M383 1110q0 57 22.5 108.5t60.5 90.5t90 61.5t110 22.5q57 0 108 -22.5t90 -61.5t61.5 -90.5t22.5 -108.5t-22.5 -109.5t-61.5 -90.5t-90 -60.5t-108 -22.5t-108.5 22.5t-90.5 60.5t-61.5 90.5t-22.5 109.5zM498 1110q2 -80 51 -132t117 -52q33 0 63.5 14t53 39t37 58.5 t14.5 72.5t-14.5 73t-37 58.5t-53.5 38.5t-65 14q-33 0 -63 -14t-53.5 -38.5t-36.5 -58.5t-13 -73z" />
<glyph unicode="&#xb1;" horiz-adv-x="1167" d="M190 0v119h992v-119h-992zM190 637v119h428v383h140v-383h424v-119h-424v-404h-140v404h-428z" />
<glyph unicode="&#xb2;" horiz-adv-x="757" d="M143 575q14 37 43 78t68 81t87 76t99 62q139 72 209 153t70 177q0 23 -4 46.5t-16.5 43t-34 31.5t-54.5 12q-51 0 -94 -39t-67 -122q-4 -16 -19.5 -30t-38.5 -14q-29 0 -53.5 20.5t-24.5 45.5q0 29 19.5 62.5t58.5 63.5t94.5 50.5t128.5 20.5q141 0 208 -63t67 -161 q0 -55 -22.5 -97t-63.5 -75.5t-98.5 -63.5t-124.5 -61q-104 -47 -174 -102t-87 -92h318q49 0 71.5 16.5t51.5 50.5l45 -14l-74 -174h-573z" />
<glyph unicode="&#xb3;" horiz-adv-x="757" d="M193 705q0 27 22.5 53t60.5 26q23 0 33 -15t19 -38q23 -66 57.5 -98.5t91.5 -32.5q78 0 122 62.5t44 156.5q0 78 -32.5 111t-92.5 33q-29 0 -64.5 -7.5t-47.5 -7.5q-27 0 -27 33q0 29 11 45t24 16q16 0 53 -8t72 -8q45 0 76.5 17.5t52 46t31 63.5t10.5 68q0 59 -30 86.5 t-75 27.5q-63 0 -96 -40t-62 -93q-10 -16 -21 -27.5t-36 -11.5q-27 0 -48.5 20.5t-21.5 43.5q0 27 18.5 55.5t54.5 53t88 41t120 16.5q135 0 201.5 -56.5t66.5 -146.5q0 -84 -62.5 -134t-158.5 -59v-4q49 -8 81 -29.5t50.5 -49t26.5 -58.5t8 -59q0 -49 -19.5 -95.5 t-61.5 -81t-108.5 -56t-160.5 -21.5q-66 0 -117 15t-85 39t-51 52.5t-17 55.5z" />
<glyph unicode="&#xb4;" horiz-adv-x="819" d="M510 1151l244 246q47 47 75.5 65.5t55.5 18.5q12 0 25.5 -8.5t25.5 -20.5t20.5 -27.5t8.5 -31.5q0 -33 -34 -58.5t-81 -52.5l-309 -172z" />
<glyph unicode="&#xb6;" horiz-adv-x="1146" d="M295 895q0 104 42 199.5t116.5 167t176 113.5t220.5 42h24l-188 -905h-22q-82 0 -150 28.5t-117 80t-75.5 122t-26.5 152.5zM485 -207l11 53l155 19q33 4 48.5 20.5t25.5 61.5l307 1470h344l-10 -53l-143 -18q-31 -4 -46.5 -17.5t-25.5 -58.5l-309 -1477h-357z" />
<glyph unicode="&#xb7;" horiz-adv-x="542" d="M254 500q0 63 37 101t96 38q55 0 86 -34t31 -81q0 -66 -37 -103.5t-96 -37.5q-55 0 -86 34t-31 83z" />
<glyph unicode="&#xb8;" horiz-adv-x="819" d="M199 -451l8 50q35 -4 70.5 -3t64.5 11t47.5 32.5t18.5 59.5q0 41 -30 71.5t-83 34.5l-6 19l123 176h92l-90 -123q35 -4 65.5 -21.5t51 -44t29.5 -60.5t1 -73q-14 -72 -79.5 -110.5t-147.5 -38.5q-39 0 -76 5t-59 15z" />
<glyph unicode="&#xb9;" horiz-adv-x="757" d="M256 557l10 47l105 8q55 2 63 47l127 592q4 18 -1 27.5t-28 13.5l-112 19l6 39l307 43l6 -9l-155 -725q-4 -25 6 -34t39 -13l98 -8l-10 -47h-461z" />
<glyph unicode="&#xba;" horiz-adv-x="796" d="M248 784q0 47 17.5 119t64.5 137q47 72 126 120t195 48q49 0 99.5 -11t90.5 -40t65.5 -77t25.5 -124q0 -39 -16.5 -108.5t-63.5 -136.5q-47 -72 -128 -120t-204 -48q-135 0 -203.5 67.5t-68.5 173.5zM408 735q0 -66 30.5 -100.5t83.5 -34.5q66 0 112 48t79 120 q31 70 45 133.5t14 110.5q0 25 -4 50t-16.5 44.5t-35 32t-57.5 12.5q-61 0 -107 -46t-79 -111.5t-49 -137.5t-16 -121z" />
<glyph unicode="&#xbb;" horiz-adv-x="946" d="M131 119l209 334q20 33 8 69l-112 338l47 31l243 -373q10 -14 7 -32.5t-15 -30.5l-346 -371zM530 119l209 334q20 33 9 69l-113 338l47 31l244 -373q10 -14 7 -32.5t-15 -30.5l-347 -371z" />
<glyph unicode="&#xbc;" horiz-adv-x="1822" d="M270 557l11 47l104 8q55 2 64 47l126 592q4 18 -1 27.5t-27 13.5l-113 19l6 39l308 43l6 -9l-156 -725q-4 -25 6 -34t39 -13l98 -8l-10 -47h-461zM475 12l1098 1418l69 -56l-1099 -1423zM1055 246q125 154 255 300t259 275h127l-115 -540h139l-20 -68h-133l-23 -111 q-8 -45 35 -49l68 -6l-11 -47h-395l10 47l95 6q20 2 35.5 13.5t19.5 35.5l22 111h-350zM1180 281h258l88 393h-13q-86 -86 -168.5 -185.5t-164.5 -207.5z" />
<glyph unicode="&#xbd;" horiz-adv-x="1822" d="M217 557l10 47l105 8q55 2 63 47l127 592q4 18 -1 27.5t-27 13.5l-113 19l6 39l307 43l6 -9l-155 -725q-4 -25 6 -34t39 -13l98 -8l-10 -47h-461zM369 12l1097 1418l70 -56l-1100 -1423zM989 18q14 37 43 78t68 81t87 76t99 62q139 72 209 153t70 177q0 23 -4.5 46.5 t-16.5 43t-33.5 31.5t-54.5 12q-51 0 -94 -39t-68 -123q-4 -16 -19 -29.5t-38 -13.5q-29 0 -53.5 20.5t-24.5 45.5q0 29 19.5 62.5t58.5 63.5t94 50.5t129 20.5q141 0 208 -63t67 -161q0 -55 -22.5 -97t-63.5 -75.5t-98.5 -63.5t-125.5 -61q-104 -47 -173.5 -102t-86.5 -92 h318q49 0 71.5 16.5t51.5 50.5l45 -14l-74 -174h-573z" />
<glyph unicode="&#xbe;" horiz-adv-x="1822" d="M287 705q0 27 22.5 53t61.5 26q23 0 33 -15t18 -38q23 -66 57.5 -98.5t91.5 -32.5q78 0 122 62.5t44 156.5q0 78 -32.5 111t-92.5 33q-29 0 -64.5 -7.5t-47.5 -7.5q-27 0 -27 33q0 29 11.5 45t23.5 16q16 0 53 -8t72 -8q45 0 76.5 17.5t52 46t31 63.5t10.5 68 q0 59 -30 86.5t-75 27.5q-63 0 -96 -40t-61 -93q-10 -16 -21.5 -27.5t-36.5 -11.5q-27 0 -48 20.5t-21 43.5q0 27 18.5 55.5t54 53t88 41t119.5 16.5q135 0 202 -56.5t67 -146.5q0 -84 -62.5 -134t-159.5 -59v-4q49 -8 81 -29.5t50.5 -49t26.5 -58.5t8 -59 q0 -49 -19.5 -95.5t-61.5 -81t-108.5 -56t-160.5 -21.5q-66 0 -117 15t-84.5 39t-51 52.5t-17.5 55.5zM522 12l1098 1418l70 -56l-1100 -1423zM1077 246q125 154 255 300t259 275h127l-114 -540h139l-21 -68h-133l-22 -111q-8 -45 35 -49l67 -6l-10 -47h-395l10 47l94 6 q20 2 35.5 13.5t19.5 35.5l23 111h-350zM1202 281h258l88 393h-12q-86 -86 -169 -185.5t-165 -207.5z" />
<glyph unicode="&#xbf;" horiz-adv-x="870" d="M78 -184q0 66 18.5 113.5t53 84.5t83 67t107.5 60q100 51 166.5 107.5t66.5 136.5q0 66 -39.5 92.5t-91.5 26.5q-29 0 -49 -2t-39 -4l-12 34q35 25 91 44.5t110 19.5q39 0 76.5 -9t68.5 -30.5t49.5 -55.5t18.5 -81q0 -72 -53.5 -131.5t-159.5 -120.5 q-145 -86 -210 -190.5t-65 -200.5q0 -63 29 -106.5t92 -43.5q37 0 67.5 17.5t55.5 46t45.5 67.5t36.5 82q14 39 63 39q25 0 58 -22.5t33 -67.5q0 -31 -23 -72t-66 -76.5t-108.5 -60t-151.5 -24.5q-150 0 -235.5 71.5t-85.5 188.5zM526 887q0 66 37 103.5t96 37.5 q55 0 86 -34t31 -83q0 -63 -37 -101t-96 -38q-55 0 -86 34t-31 81z" />
<glyph unicode="&#xc0;" horiz-adv-x="1277" d="M-47 0l12 59l68 9q25 4 44 10t37.5 20.5t38 40t44.5 64.5q29 47 71.5 121.5t92 160.5t98.5 173t88 155l344 604h145l152 -1233q8 -63 21.5 -88.5t60.5 -29.5l78 -7l-13 -59h-504l13 59l108 11q31 4 43.5 19t8.5 61l-48 397h-458q-57 -104 -109.5 -202.5t-101.5 -199.5 q-16 -31 -10 -51t36 -24l113 -11l-12 -59h-461zM539 625h407l-72 602h-4q-84 -150 -166.5 -299.5t-164.5 -302.5zM629 1716q-2 16 4 33.5t15 33t21.5 27t24.5 13.5q25 4 52.5 -7.5t80.5 -48.5l297 -202l-22 -45l-348 114q-70 23 -95.5 38.5t-29.5 43.5z" />
<glyph unicode="&#xc1;" horiz-adv-x="1277" d="M-47 0l12 59l68 9q25 4 44 10t37.5 20.5t38 40t44.5 64.5q29 47 71.5 121.5t92 160.5t98.5 173t88 155l344 604h145l152 -1233q8 -63 21.5 -88.5t60.5 -29.5l78 -7l-13 -59h-504l13 59l108 11q31 4 43.5 19t8.5 61l-48 397h-458q-57 -104 -109.5 -202.5t-101.5 -199.5 q-16 -31 -10 -51t36 -24l113 -11l-12 -59h-461zM539 625h407l-72 602h-4q-84 -150 -166.5 -299.5t-164.5 -302.5zM799 1565l297 202q53 37 80.5 48.5t52.5 7.5q12 -2 24.5 -13.5t21.5 -27t15 -33t4 -33.5q-4 -29 -29.5 -44t-95.5 -38l-348 -114z" />
<glyph unicode="&#xc2;" horiz-adv-x="1277" d="M-47 0l12 59l68 9q25 4 44 10t37.5 20.5t38 40t44.5 64.5q29 47 71.5 121.5t92 160.5t98.5 173t88 155l344 604h145l152 -1233q8 -63 21.5 -88.5t60.5 -29.5l78 -7l-13 -59h-504l13 59l108 11q31 4 43.5 19t8.5 61l-48 397h-458q-57 -104 -109.5 -202.5t-101.5 -199.5 q-16 -31 -10 -51t36 -24l113 -11l-12 -59h-461zM539 625h407l-72 602h-4q-84 -150 -166.5 -299.5t-164.5 -302.5zM645 1520l287 227q29 23 47 35t39 12q18 0 34.5 -14.5t32.5 -36.5l187 -225l-37 -39l-184 120q-20 12 -36 22.5t-30 10.5q-12 0 -32.5 -9t-41.5 -19l-239 -125 z" />
<glyph unicode="&#xc3;" horiz-adv-x="1277" d="M-47 0l12 59l68 9q25 4 44 10t37.5 20.5t38 40t44.5 64.5q29 47 71.5 121.5t92 160.5t98.5 173t88 155l344 604h145l152 -1233q8 -63 21.5 -88.5t60.5 -29.5l78 -7l-13 -59h-504l13 59l108 11q31 4 43.5 19t8.5 61l-48 397h-458q-57 -104 -109.5 -202.5t-101.5 -199.5 q-16 -31 -10 -51t36 -24l113 -11l-12 -59h-461zM539 625h407l-72 602h-4q-84 -150 -166.5 -299.5t-164.5 -302.5zM614 1507q16 31 35 66t46.5 65.5t63.5 50t85 19.5q37 0 79 -12.5t83 -26.5q43 -16 82.5 -27.5t72.5 -11.5q43 0 69.5 20.5t69.5 73.5l41 -22 q-45 -88 -91 -141.5t-122 -53.5q-35 0 -76.5 12.5t-86.5 26.5q-45 16 -87 27.5t-77 11.5q-51 0 -82 -25.5t-66 -78.5z" />
<glyph unicode="&#xc4;" horiz-adv-x="1277" d="M-47 0l12 59l68 9q25 4 44 10t37.5 20.5t38 40t44.5 64.5q29 47 71.5 121.5t92 160.5t98.5 173t88 155l344 604h145l152 -1233q8 -63 21.5 -88.5t60.5 -29.5l78 -7l-13 -59h-504l13 59l108 11q31 4 43.5 19t8.5 61l-48 397h-458q-57 -104 -109.5 -202.5t-101.5 -199.5 q-16 -31 -10 -51t36 -24l113 -11l-12 -59h-461zM539 625h407l-72 602h-4q-84 -150 -166.5 -299.5t-164.5 -302.5zM655 1612q0 55 35 90t86 35q47 0 72.5 -31t25.5 -70q0 -53 -32.5 -89t-85.5 -36q-49 0 -75 28t-26 73zM1081 1612q0 55 35 90t86 35q47 0 72.5 -31t25.5 -70 q0 -53 -32.5 -89t-85.5 -36q-49 0 -75 28t-26 73z" />
<glyph unicode="&#xc5;" horiz-adv-x="1277" d="M-47 0l12 59l68 9q25 4 44 10t37.5 20.5t38 40t44.5 64.5q29 47 71.5 121.5t92 160.5t98.5 173t88 155l319 551q-59 23 -84.5 68t-25.5 94q0 27 9 66.5t35.5 77.5t76 65.5t129.5 27.5q76 0 134 -47t58 -139q0 -98 -48 -149.5t-108 -65.5l146 -1178q8 -63 21.5 -88.5 t60.5 -29.5l78 -7l-13 -59h-504l13 59l108 11q31 4 43.5 19t8.5 61l-48 397h-458q-57 -104 -109.5 -202.5t-101.5 -199.5q-16 -31 -10 -51t36 -24l113 -11l-12 -59h-461zM539 625h407l-72 602h-4q-84 -150 -168 -299.5t-163 -302.5zM872 1526q0 -55 25 -82t59 -27 q43 0 68 22.5t37 52.5t16 59.5t4 45.5q0 47 -23.5 73t-58.5 26q-37 0 -61.5 -20.5t-38.5 -48.5t-20.5 -56.5t-6.5 -44.5z" />
<glyph unicode="&#xc6;" horiz-adv-x="1802" d="M-109 0l17 59l69 7q43 4 71 25.5t63 64.5q78 94 180 226t211.5 277.5t220.5 294t203 273.5q49 66 51 90t-27 29l-137 12l18 59h1168l-78 -342h-61q6 70 7 120t-20.5 84t-73 50.5t-147.5 16.5h-248q-27 0 -38 -11.5t-19 -48.5l-117 -510h269q68 0 108.5 7.5t67 26.5t43 53 t37.5 87h61l-94 -428h-62q4 49 1 83t-19.5 54.5t-54 29.5t-105.5 9h-268l-105 -448q-16 -72 -14 -102.5t25 -49.5q20 -16 86.5 -21t142.5 -5q94 0 161.5 9t118 40t90.5 88t79 151h61l-104 -360h-1070l13 59l114 13q37 4 54.5 24.5t29.5 73.5l119 528h-342 q-104 -141 -202.5 -279t-184.5 -274q-45 -70 14 -75l121 -11l-16 -59h-488zM702 776h306l129 563h-11z" />
<glyph unicode="&#xc7;" horiz-adv-x="1353" d="M233 563q0 106 28 240.5t112 271.5q45 72 109.5 139.5t153.5 119.5t204.5 83t259.5 31q53 0 114.5 -6t122 -20.5t116.5 -34t99 -48.5l-73 -307h-62q8 168 -66.5 256t-267.5 88q-166 0 -285.5 -81t-197.5 -210q-37 -61 -64.5 -132.5t-46 -146.5t-27.5 -150.5t-9 -145.5 q0 -119 30.5 -207t84 -146.5t129 -87t163.5 -28.5q94 0 164 24.5t123 68.5t96 107.5t86 139.5h62l-101 -326q-98 -49 -201.5 -67.5t-214.5 -18.5h-14l-67 -92q35 -4 65.5 -21.5t51 -44t29.5 -60.5t1 -73q-14 -72 -79.5 -110.5t-147.5 -38.5q-39 0 -76 5t-59 15l8 50 q35 -4 70.5 -3t64.5 11t47 32.5t18 59.5q0 41 -29.5 71.5t-82.5 34.5l-6 19l104 151q-160 14 -263 72.5t-164.5 141.5t-86.5 181.5t-25 192.5z" />
<glyph unicode="&#xc8;" horiz-adv-x="1220" d="M78 0l12 59l115 13q37 4 54 24.5t30 73.5l246 1081q12 53 0.5 74t-46.5 25l-122 8l14 59h1036l-78 -342h-61q6 70 7 120t-20.5 84t-72.5 50.5t-148 16.5h-247q-27 0 -38 -11.5t-20 -48.5l-116 -510h268q68 0 108.5 7.5t67.5 26.5t43 53t37 87h61l-94 -428h-61q4 49 1 83 t-19.5 54.5t-54.5 29.5t-106 9h-268l-104 -448q-16 -72 -14.5 -102.5t24.5 -49.5q20 -16 87 -21t142 -5q94 0 162 9t118 40t90 88t79 151h61l-104 -360h-1069zM641 1716q-2 16 4 33.5t15.5 33t21.5 27t25 13.5q25 4 52 -7.5t81 -48.5l297 -202l-23 -45l-348 114 q-70 23 -95.5 38.5t-29.5 43.5z" />
<glyph unicode="&#xc9;" horiz-adv-x="1220" d="M78 0l12 59l115 13q37 4 54 24.5t30 73.5l246 1081q12 53 0.5 74t-46.5 25l-122 8l14 59h1036l-78 -342h-61q6 70 7 120t-20.5 84t-72.5 50.5t-148 16.5h-247q-27 0 -38 -11.5t-20 -48.5l-116 -510h268q68 0 108.5 7.5t67.5 26.5t43 53t37 87h61l-94 -428h-61q4 49 1 83 t-19.5 54.5t-54.5 29.5t-106 9h-268l-104 -448q-16 -72 -14.5 -102.5t24.5 -49.5q20 -16 87 -21t142 -5q94 0 162 9t118 40t90 88t79 151h61l-104 -360h-1069zM817 1565l297 202q53 37 81 48.5t52 7.5q12 -2 24.5 -13.5t22 -27t15.5 -33t4 -33.5q-4 -29 -30 -44t-95 -38 l-348 -114z" />
<glyph unicode="&#xca;" horiz-adv-x="1220" d="M78 0l12 59l115 13q37 4 54 24.5t30 73.5l246 1081q12 53 0.5 74t-46.5 25l-122 8l14 59h1036l-78 -342h-61q6 70 7 120t-20.5 84t-72.5 50.5t-148 16.5h-247q-27 0 -38 -11.5t-20 -48.5l-116 -510h268q68 0 108.5 7.5t67.5 26.5t43 53t37 87h61l-94 -428h-61q4 49 1 83 t-19.5 54.5t-54.5 29.5t-106 9h-268l-104 -448q-16 -72 -14.5 -102.5t24.5 -49.5q20 -16 87 -21t142 -5q94 0 162 9t118 40t90 88t79 151h61l-104 -360h-1069zM629 1520l286 227q29 23 47.5 35t38.5 12q18 0 35 -14.5t33 -36.5l186 -225l-36 -39l-185 120q-20 12 -35.5 22.5 t-29.5 10.5q-12 0 -33 -9t-41 -19l-240 -125z" />
<glyph unicode="&#xcb;" horiz-adv-x="1220" d="M78 0l12 59l115 13q37 4 54 24.5t30 73.5l246 1081q12 53 0.5 74t-46.5 25l-122 8l14 59h1036l-78 -342h-61q6 70 7 120t-20.5 84t-72.5 50.5t-148 16.5h-247q-27 0 -38 -11.5t-20 -48.5l-116 -510h268q68 0 108.5 7.5t67.5 26.5t43 53t37 87h61l-94 -428h-61q4 49 1 83 t-19.5 54.5t-54.5 29.5t-106 9h-268l-104 -448q-16 -72 -14.5 -102.5t24.5 -49.5q20 -16 87 -21t142 -5q94 0 162 9t118 40t90 88t79 151h61l-104 -360h-1069zM627 1612q0 55 34.5 90t86.5 35q47 0 72.5 -31t25.5 -70q0 -53 -33 -89t-86 -36q-49 0 -74.5 28t-25.5 73z M1053 1612q0 55 34.5 90t86.5 35q47 0 72.5 -31t25.5 -70q0 -53 -33 -89t-86 -36q-49 0 -74.5 28t-25.5 73z" />
<glyph unicode="&#xcc;" horiz-adv-x="706" d="M82 0l12 59l113 13q37 4 56.5 26.5t29.5 71.5l246 1077q23 96 -45 103l-121 8l14 59h561l-14 -59l-113 -10q-39 -4 -57.5 -29t-28.5 -72l-246 -1077q-10 -47 -0.5 -72.5t46.5 -29.5l120 -9l-12 -59h-561zM373 1716q-2 16 4 33.5t15 33t21.5 27t24.5 13.5q25 4 52.5 -7.5 t80.5 -48.5l297 -202l-22 -45l-348 114q-70 23 -95.5 38.5t-29.5 43.5z" />
<glyph unicode="&#xcd;" horiz-adv-x="706" d="M82 0l12 59l113 13q37 4 56.5 26.5t29.5 71.5l246 1077q23 96 -45 103l-121 8l14 59h561l-14 -59l-113 -10q-39 -4 -57.5 -29t-28.5 -72l-246 -1077q-10 -47 -0.5 -72.5t46.5 -29.5l120 -9l-12 -59h-561zM500 1565l297 202q53 37 80.5 48.5t52.5 7.5q12 -2 24.5 -13.5 t21.5 -27t15 -33t4 -33.5q-4 -29 -29.5 -44t-95.5 -38l-348 -114z" />
<glyph unicode="&#xce;" horiz-adv-x="706" d="M82 0l12 59l113 13q37 4 56.5 26.5t29.5 71.5l246 1077q23 96 -45 103l-121 8l14 59h561l-14 -59l-113 -10q-39 -4 -57.5 -29t-28.5 -72l-246 -1077q-10 -47 -0.5 -72.5t46.5 -29.5l120 -9l-12 -59h-561zM373 1520l286 227q29 23 47.5 35t38.5 12q18 0 35 -14.5t33 -36.5 l186 -225l-36 -39l-185 120q-20 12 -35.5 22.5t-29.5 10.5q-12 0 -33 -9t-41 -19l-240 -125z" />
<glyph unicode="&#xcf;" horiz-adv-x="706" d="M82 0l12 59l113 13q37 4 56.5 26.5t29.5 71.5l246 1077q23 96 -45 103l-121 8l14 59h561l-14 -59l-113 -10q-39 -4 -57.5 -29t-28.5 -72l-246 -1077q-10 -47 -0.5 -72.5t46.5 -29.5l120 -9l-12 -59h-561zM371 1612q0 55 34.5 90t86.5 35q47 0 72.5 -31t25.5 -70 q0 -53 -33 -89t-86 -36q-49 0 -74.5 28t-25.5 73zM797 1612q0 55 34.5 90t86.5 35q47 0 72.5 -31t25.5 -70q0 -53 -33 -89t-86 -36q-49 0 -74.5 28t-25.5 73z" />
<glyph unicode="&#xd0;" horiz-adv-x="1576" d="M96 0l13 59l114 13q37 4 55.5 25.5t28.5 72.5l119 528h-219l20 78h217l107 471q10 51 1 73.5t-44 27.5l-121 10l12 59h551q172 0 306.5 -35.5t224.5 -111.5q88 -74 132 -188.5t44 -239.5q0 -92 -24.5 -215t-112.5 -256q-55 -84 -129 -152.5t-170.5 -117t-219 -75 t-276.5 -26.5h-629zM504 176q-8 -33 1 -54.5t32.5 -31.5t57.5 -14t77 -4q127 0 225 22.5t174 64.5t133.5 101t100.5 131q70 115 101.5 239t31.5 257q0 61 -12.5 140t-59.5 148.5t-139 118.5t-252 52q-61 0 -101 -2.5t-66 -9.5t-38 -22.5t-18 -41.5l-111 -494h281l-23 -78 h-276z" />
<glyph unicode="&#xd1;" horiz-adv-x="1562" d="M63 0l11 59l63 7q47 4 75 21t46 67q18 51 35.5 111.5t36.5 142.5l192 839q12 51 1 72.5t-46 26.5l-121 12l15 59h389q129 -289 260 -574.5t264 -574.5h8l168 742q18 82 28.5 142t14.5 112q4 51 -20.5 66.5t-73.5 19.5l-80 8l10 59h484l-11 -59l-63 -6q-47 -4 -74.5 -21.5 t-46.5 -66.5q-18 -51 -35.5 -111.5t-36.5 -142.5l-229 -1010h-133q-141 313 -282.5 623.5t-286.5 623.5h-7l-192 -839q-18 -82 -28.5 -142.5t-14.5 -111.5q-4 -47 20.5 -65.5t73.5 -22.5l80 -7l-10 -59h-484zM756 1507q16 31 34.5 66t46 65.5t63.5 50t85 19.5q37 0 79 -12.5 t83 -26.5q43 -16 83 -27.5t73 -11.5q43 0 69.5 20.5t69.5 73.5l41 -22q-45 -88 -91 -141.5t-122 -53.5q-35 0 -77 12.5t-87 26.5q-45 16 -87 27.5t-77 11.5q-51 0 -82 -25.5t-65 -78.5z" />
<glyph unicode="&#xd2;" horiz-adv-x="1542" d="M233 553q0 102 29 238.5t113 279.5q45 74 105.5 142.5t140 120.5t180 83t223.5 31q127 0 235.5 -35t187.5 -107.5t124 -186t45 -271.5q0 -31 -4 -82t-18.5 -116.5t-40 -140.5t-66.5 -151q-43 -76 -99.5 -146.5t-134 -123.5t-181 -86t-238.5 -33q-154 0 -266.5 44 t-186.5 122t-111 184.5t-37 233.5zM449 471q0 -215 100 -322.5t266 -107.5q100 0 177 32.5t136.5 89t102.5 131.5t74 157q63 164 79.5 289.5t16.5 213.5q0 217 -99.5 319.5t-269.5 102.5q-82 0 -149.5 -26.5t-125 -72.5t-102.5 -108.5t-80 -136.5q-72 -150 -99 -291 t-27 -270zM772 1716q-2 16 4 33.5t15.5 33t21.5 27t25 13.5q25 4 52.5 -7.5t80.5 -48.5l297 -202l-23 -45l-348 114q-70 23 -95.5 38.5t-29.5 43.5z" />
<glyph unicode="&#xd3;" horiz-adv-x="1542" d="M233 553q0 102 29 238.5t113 279.5q45 74 105.5 142.5t140 120.5t180 83t223.5 31q127 0 235.5 -35t187.5 -107.5t124 -186t45 -271.5q0 -31 -4 -82t-18.5 -116.5t-40 -140.5t-66.5 -151q-43 -76 -99.5 -146.5t-134 -123.5t-181 -86t-238.5 -33q-154 0 -266.5 44 t-186.5 122t-111 184.5t-37 233.5zM449 471q0 -215 100 -322.5t266 -107.5q100 0 177 32.5t136.5 89t102.5 131.5t74 157q63 164 79.5 289.5t16.5 213.5q0 217 -99.5 319.5t-269.5 102.5q-82 0 -149.5 -26.5t-125 -72.5t-102.5 -108.5t-80 -136.5q-72 -150 -99 -291 t-27 -270zM922 1565l297 202q53 37 80.5 48.5t52.5 7.5q12 -2 24.5 -13.5t21.5 -27t15 -33t4 -33.5q-4 -29 -29.5 -44t-95.5 -38l-348 -114z" />
<glyph unicode="&#xd4;" horiz-adv-x="1542" d="M233 553q0 102 29 238.5t113 279.5q45 74 105.5 142.5t140 120.5t180 83t223.5 31q127 0 235.5 -35t187.5 -107.5t124 -186t45 -271.5q0 -31 -4 -82t-18.5 -116.5t-40 -140.5t-66.5 -151q-43 -76 -99.5 -146.5t-134 -123.5t-181 -86t-238.5 -33q-154 0 -266.5 44 t-186.5 122t-111 184.5t-37 233.5zM449 471q0 -215 100 -322.5t266 -107.5q100 0 177 32.5t136.5 89t102.5 131.5t74 157q63 164 79.5 289.5t16.5 213.5q0 217 -99.5 319.5t-269.5 102.5q-82 0 -149.5 -26.5t-125 -72.5t-102.5 -108.5t-80 -136.5q-72 -150 -99 -291 t-27 -270zM766 1520l287 227q29 23 47 35t39 12q18 0 34.5 -14.5t32.5 -36.5l187 -225l-37 -39l-185 120q-20 12 -35.5 22.5t-29.5 10.5q-12 0 -32.5 -9t-41.5 -19l-239 -125z" />
<glyph unicode="&#xd5;" horiz-adv-x="1542" d="M233 553q0 102 29 238.5t113 279.5q45 74 105.5 142.5t140 120.5t180 83t223.5 31q127 0 235.5 -35t187.5 -107.5t124 -186t45 -271.5q0 -31 -4 -82t-18.5 -116.5t-40 -140.5t-66.5 -151q-43 -76 -99.5 -146.5t-134 -123.5t-181 -86t-238.5 -33q-154 0 -266.5 44 t-186.5 122t-111 184.5t-37 233.5zM449 471q0 -215 100 -322.5t266 -107.5q100 0 177 32.5t136.5 89t102.5 131.5t74 157q63 164 79.5 289.5t16.5 213.5q0 217 -99.5 319.5t-269.5 102.5q-82 0 -149.5 -26.5t-125 -72.5t-102.5 -108.5t-80 -136.5q-72 -150 -99 -291 t-27 -270zM721 1507q16 31 34.5 66t46 65.5t63.5 50t85 19.5q37 0 79 -12.5t83 -26.5q43 -16 83 -27.5t73 -11.5q43 0 69.5 20.5t69.5 73.5l41 -22q-45 -88 -91 -141.5t-122 -53.5q-35 0 -77 12.5t-87 26.5q-45 16 -87 27.5t-77 11.5q-51 0 -81.5 -25.5t-65.5 -78.5z" />
<glyph unicode="&#xd6;" horiz-adv-x="1542" d="M233 553q0 102 29 238.5t113 279.5q45 74 105.5 142.5t140 120.5t180 83t223.5 31q127 0 235.5 -35t187.5 -107.5t124 -186t45 -271.5q0 -31 -4 -82t-18.5 -116.5t-40 -140.5t-66.5 -151q-43 -76 -99.5 -146.5t-134 -123.5t-181 -86t-238.5 -33q-154 0 -266.5 44 t-186.5 122t-111 184.5t-37 233.5zM449 471q0 -215 100 -322.5t266 -107.5q100 0 177 32.5t136.5 89t102.5 131.5t74 157q63 164 79.5 289.5t16.5 213.5q0 217 -99.5 319.5t-269.5 102.5q-82 0 -149.5 -26.5t-125 -72.5t-102.5 -108.5t-80 -136.5q-72 -150 -99 -291 t-27 -270zM788 1612q0 55 35 90t86 35q47 0 73 -31t26 -70q0 -53 -33 -89t-86 -36q-49 0 -75 28t-26 73zM1214 1612q0 55 35 90t86 35q47 0 73 -31t26 -70q0 -53 -33 -89t-86 -36q-49 0 -75 28t-26 73z" />
<glyph unicode="&#xd7;" horiz-adv-x="1167" d="M252 135l366 377l-366 373l84 94l371 -377l368 377l86 -94l-366 -373l366 -377l-86 -90l-368 377l-371 -377z" />
<glyph unicode="&#xd8;" horiz-adv-x="1542" d="M233 553q0 102 29 238.5t113 279.5q45 74 105.5 142.5t140 120.5t180 83t223.5 31q100 0 190.5 -21.5t161.5 -68.5l119 149l66 -53l-117 -147q80 -72 126 -185.5t46 -273.5q0 -31 -4 -82t-18.5 -116.5t-40 -140.5t-66.5 -151q-43 -76 -99.5 -146.5t-134 -123.5t-181 -86 t-238.5 -33q-117 0 -208 25.5t-161 73.5l-127 -160l-62 57l121 154q-82 78 -123 188.5t-41 245.5zM449 471q0 -139 45 -231l811 1028q-47 55 -117 81.5t-156 26.5q-82 0 -149.5 -26.5t-125 -72.5t-102.5 -108.5t-80 -136.5q-72 -150 -99 -291t-27 -270zM539 162 q96 -121 276 -121q100 0 177 32.5t136.5 89t102.5 131.5t74 157q63 164 79.5 289.5t16.5 213.5q0 143 -47 238z" />
<glyph unicode="&#xd9;" horiz-adv-x="1626" d="M346.5 265.5q-20.5 105.5 15.5 258.5l173 723q12 51 0.5 73.5t-46.5 27.5l-120 10l14 59h561l-14 -59l-113 -8q-39 -4 -56.5 -27t-29.5 -76l-162 -696q-33 -143 -25.5 -241.5t47.5 -158t106.5 -85t152.5 -25.5q106 0 181 39t126 105.5t84 155.5t57 191l166 715 q12 51 1 73.5t-46 27.5l-121 10l15 59h561l-14 -59l-113 -10q-39 -4 -56.5 -26t-29.5 -75l-174 -741q-43 -178 -109.5 -284.5t-151.5 -163t-183.5 -73t-202.5 -16.5q-131 0 -236.5 30t-171 95.5t-86 171zM741 1716q-2 16 4.5 33.5t15.5 33t21.5 27t24.5 13.5q25 4 52.5 -7.5 t80.5 -48.5l297 -202l-23 -45l-348 114q-70 23 -95.5 38.5t-29.5 43.5z" />
<glyph unicode="&#xda;" horiz-adv-x="1626" d="M346.5 265.5q-20.5 105.5 15.5 258.5l173 723q12 51 0.5 73.5t-46.5 27.5l-120 10l14 59h561l-14 -59l-113 -8q-39 -4 -56.5 -27t-29.5 -76l-162 -696q-33 -143 -25.5 -241.5t47.5 -158t106.5 -85t152.5 -25.5q106 0 181 39t126 105.5t84 155.5t57 191l166 715 q12 51 1 73.5t-46 27.5l-121 10l15 59h561l-14 -59l-113 -10q-39 -4 -56.5 -26t-29.5 -75l-174 -741q-43 -178 -109.5 -284.5t-151.5 -163t-183.5 -73t-202.5 -16.5q-131 0 -236.5 30t-171 95.5t-86 171zM1044 1565l297 202q53 37 81 48.5t53 7.5q12 -2 24 -13.5t21.5 -27 t15.5 -33t4 -33.5q-4 -29 -29.5 -44t-95.5 -38l-348 -114z" />
<glyph unicode="&#xdb;" horiz-adv-x="1626" d="M346.5 265.5q-20.5 105.5 15.5 258.5l173 723q12 51 0.5 73.5t-46.5 27.5l-120 10l14 59h561l-14 -59l-113 -8q-39 -4 -56.5 -27t-29.5 -76l-162 -696q-33 -143 -25.5 -241.5t47.5 -158t106.5 -85t152.5 -25.5q106 0 181 39t126 105.5t84 155.5t57 191l166 715 q12 51 1 73.5t-46 27.5l-121 10l15 59h561l-14 -59l-113 -10q-39 -4 -56.5 -26t-29.5 -75l-174 -741q-43 -178 -109.5 -284.5t-151.5 -163t-183.5 -73t-202.5 -16.5q-131 0 -236.5 30t-171 95.5t-86 171zM827 1520l287 227q29 23 47.5 35t38.5 12q18 0 34.5 -14.5 t33.5 -36.5l186 -225l-37 -39l-184 120q-20 12 -35.5 22.5t-30.5 10.5q-12 0 -32.5 -9t-40.5 -19l-240 -125z" />
<glyph unicode="&#xdc;" horiz-adv-x="1626" d="M346.5 265.5q-20.5 105.5 15.5 258.5l173 723q12 51 0.5 73.5t-46.5 27.5l-120 10l14 59h561l-14 -59l-113 -8q-39 -4 -56.5 -27t-29.5 -76l-162 -696q-33 -143 -25.5 -241.5t47.5 -158t106.5 -85t152.5 -25.5q106 0 181 39t126 105.5t84 155.5t57 191l166 715 q12 51 1 73.5t-46 27.5l-121 10l15 59h561l-14 -59l-113 -10q-39 -4 -56.5 -26t-29.5 -75l-174 -741q-43 -178 -109.5 -284.5t-151.5 -163t-183.5 -73t-202.5 -16.5q-131 0 -236.5 30t-171 95.5t-86 171zM838 1612q0 55 34.5 90t85.5 35q47 0 73 -31t26 -70q0 -53 -33 -89 t-86 -36q-49 0 -74.5 28t-25.5 73zM1264 1612q0 55 34.5 90t85.5 35q47 0 73 -31t26 -70q0 -53 -33 -89t-86 -36q-49 0 -74.5 28t-25.5 73z" />
<glyph unicode="&#xdd;" horiz-adv-x="1210" d="M268 1358l13 59h510l-13 -59l-112 -10q-53 -6 -39 -60l186 -629h6q61 82 125 172.5t122 174.5t107.5 158.5t77.5 125.5q31 53 -30 60l-107 8l12 59h469l-12 -59q-43 -2 -71.5 -8.5t-51 -16.5t-43 -29.5t-49.5 -50.5q-41 -47 -98.5 -118.5t-121 -155.5t-128 -174 t-123.5 -176q-16 -23 -31.5 -52.5t-25.5 -70.5l-78 -346q-10 -43 0 -63.5t47 -24.5l156 -13l-13 -59h-635l13 59l147 15q41 4 57.5 23.5t26.5 62.5l78 344q14 59 0 108q-51 170 -99 334t-102 318q-10 31 -19 47t-26.5 25.5t-46.5 13.5t-78 8zM940 1565l297 202 q53 37 81 48.5t52 7.5q12 -2 24.5 -13.5t21.5 -27t15.5 -33t4.5 -33.5q-4 -29 -30 -44t-95 -38l-348 -114z" />
<glyph unicode="&#xde;" horiz-adv-x="1236" d="M82 0l12 59l113 13q37 4 55.5 25.5t30.5 72.5l246 1077q12 51 0.5 72.5t-45.5 26.5l-121 12l14 59h561l-14 -59l-113 -10q-39 -4 -56 -26t-30 -75l-28 -127h151q96 0 183 -16.5t153 -56t103.5 -105.5t35.5 -162q-2 -88 -31.5 -153.5t-80 -110.5t-114 -72.5t-131 -44 t-134 -21.5t-121.5 -5h-186l-46 -203q-10 -47 -0.5 -70.5t50.5 -27.5l120 -13l-12 -59h-565zM566 486.5q1 -13.5 14.5 -22.5t42 -14.5t82.5 -5.5q86 0 161.5 21.5t131 65.5t88 113t32.5 163q0 111 -67.5 176.5t-202.5 65.5q-49 0 -81 -3.5t-51.5 -12.5t-28.5 -22.5 t-13 -35.5l-105 -461q-4 -14 -3 -27.5z" />
<glyph unicode="&#xdf;" horiz-adv-x="1191" d="M-147 -377q0 39 28.5 71t63.5 32q20 0 32.5 -14.5t22.5 -30.5q41 -63 66.5 -82t44.5 -19q16 0 28.5 13.5t18.5 48.5l252 1284h-181l23 78h178l14 45q23 72 64 154.5t106.5 153t162.5 117t233 46.5q172 -2 262 -79t90 -200q0 -27 -5 -57.5t-21.5 -64.5t-45 -72.5 t-78.5 -81.5q-86 2 -140 -14.5t-86 -43t-43 -57.5t-11 -57q0 -33 14.5 -66t34.5 -63.5t44 -59.5t42 -53q41 -51 79 -117.5t38 -152.5q0 -61 -21.5 -118t-63.5 -97.5t-103.5 -65.5t-139.5 -25q-45 0 -87 10.5t-74.5 27t-52 38t-21.5 43.5q-2 41 26.5 66.5t57.5 25.5 q33 0 55 -34q43 -66 82 -83.5t73 -17.5q45 0 82 35t37 104q0 63 -36.5 127t-98.5 138q-49 59 -86 125.5t-37 136.5q0 66 23.5 117t63.5 89t93.5 59.5t114.5 23.5q68 57 93.5 122.5t25.5 122.5q0 53 -18.5 90t-46 60.5t-60.5 35t-61 11.5q-84 0 -148.5 -45t-114 -128 t-87.5 -202t-70 -264l-168 -746q-33 -147 -68 -252.5t-78 -174t-98 -100.5t-133 -32q-37 0 -69.5 9.5t-58.5 25t-42 38t-16 46.5z" />
<glyph unicode="&#xe0;" horiz-adv-x="1159" d="M135 219q0 68 19.5 154t59.5 176t99.5 176t139 153.5t181 108.5t222.5 41q41 0 82 -12t68 -31l10 27h172l-217 -817q-14 -49 -12 -81t32 -32q23 0 48.5 23.5t51 57.5t48 71.5t37.5 64.5l49 -29q-27 -57 -61 -111.5t-77 -94t-93 -64.5t-109 -25q-84 0 -103.5 59.5 t13.5 170.5l69 233h-4q-45 -78 -102.5 -159.5t-125 -149.5t-143 -111t-157.5 -43q-51 0 -89 20.5t-61.5 55.5t-35 79t-11.5 89zM338 225q0 -59 19.5 -101t70.5 -42q37 0 78 24.5t85 66.5t88 98.5t87 121.5q41 61 74.5 129t61.5 135.5t48.5 132t34.5 121.5q-49 45 -125 45 q-80 0 -150.5 -38.5t-128 -101t-103.5 -141.5t-76.5 -160t-47 -157.5t-16.5 -132.5zM557 1393q0 16 8 31.5t20.5 27.5t26 20.5t25.5 8.5q27 0 55.5 -18.5t75.5 -65.5l244 -246l-31 -41l-309 172q-47 27 -81 52.5t-34 58.5z" />
<glyph unicode="&#xe1;" horiz-adv-x="1159" d="M135 219q0 68 19.5 154t59.5 176t99.5 176t139 153.5t181 108.5t222.5 41q41 0 82 -12t68 -31l10 27h172l-217 -817q-14 -49 -12 -81t32 -32q23 0 48.5 23.5t51 57.5t48 71.5t37.5 64.5l49 -29q-27 -57 -61 -111.5t-77 -94t-93 -64.5t-109 -25q-84 0 -103.5 59.5 t13.5 170.5l69 233h-4q-45 -78 -102.5 -159.5t-125 -149.5t-143 -111t-157.5 -43q-51 0 -89 20.5t-61.5 55.5t-35 79t-11.5 89zM338 225q0 -59 19.5 -101t70.5 -42q37 0 78 24.5t85 66.5t88 98.5t87 121.5q41 61 74.5 129t61.5 135.5t48.5 132t34.5 121.5q-49 45 -125 45 q-80 0 -150.5 -38.5t-128 -101t-103.5 -141.5t-76.5 -160t-47 -157.5t-16.5 -132.5zM758 1151l243 246q47 47 76 65.5t56 18.5q12 0 25 -8.5t25.5 -20.5t20.5 -27.5t8 -31.5q0 -33 -33.5 -58.5t-80.5 -52.5l-310 -172z" />
<glyph unicode="&#xe2;" horiz-adv-x="1159" d="M135 219q0 68 19.5 154t59.5 176t99.5 176t139 153.5t181 108.5t222.5 41q41 0 82 -12t68 -31l10 27h172l-217 -817q-14 -49 -12 -81t32 -32q23 0 48.5 23.5t51 57.5t48 71.5t37.5 64.5l49 -29q-27 -57 -61 -111.5t-77 -94t-93 -64.5t-109 -25q-84 0 -103.5 59.5 t13.5 170.5l69 233h-4q-45 -78 -102.5 -159.5t-125 -149.5t-143 -111t-157.5 -43q-51 0 -89 20.5t-61.5 55.5t-35 79t-11.5 89zM338 225q0 -59 19.5 -101t70.5 -42q37 0 78 24.5t85 66.5t88 98.5t87 121.5q41 61 74.5 129t61.5 135.5t48.5 132t34.5 121.5q-49 45 -125 45 q-80 0 -150.5 -38.5t-128 -101t-103.5 -141.5t-76.5 -160t-47 -157.5t-16.5 -132.5zM571 1161l283 264q23 23 43.5 36.5t38.5 13.5q16 0 31.5 -15.5t29.5 -34.5l183 -264l-47 -43l-175 154q-16 12 -29.5 21.5t-27.5 9.5q-10 0 -28.5 -9.5t-36.5 -21.5l-236 -154z" />
<glyph unicode="&#xe3;" horiz-adv-x="1159" d="M135 219q0 68 19.5 154t59.5 176t99.5 176t139 153.5t181 108.5t222.5 41q41 0 82 -12t68 -31l10 27h172l-217 -817q-14 -49 -12 -81t32 -32q23 0 48.5 23.5t51 57.5t48 71.5t37.5 64.5l49 -29q-27 -57 -61 -111.5t-77 -94t-93 -64.5t-109 -25q-84 0 -103.5 59.5 t13.5 170.5l69 233h-4q-45 -78 -102.5 -159.5t-125 -149.5t-143 -111t-157.5 -43q-51 0 -89 20.5t-61.5 55.5t-35 79t-11.5 89zM338 225q0 -59 19.5 -101t70.5 -42q37 0 78 24.5t85 66.5t88 98.5t87 121.5q41 61 74.5 129t61.5 135.5t48.5 132t34.5 121.5q-49 45 -125 45 q-80 0 -150.5 -38.5t-128 -101t-103.5 -141.5t-76.5 -160t-47 -157.5t-16.5 -132.5zM469 1180q16 31 34.5 65.5t46.5 65t63.5 50t84.5 19.5q37 0 79 -12t83 -27q43 -16 83 -27t73 -11q43 0 69.5 20t69.5 74l41 -23q-45 -88 -91 -141t-122 -53q-35 0 -77 12t-87 27 q-45 16 -87 27t-77 11q-51 0 -81.5 -25.5t-65.5 -78.5z" />
<glyph unicode="&#xe4;" horiz-adv-x="1159" d="M135 219q0 68 19.5 154t59.5 176t99.5 176t139 153.5t181 108.5t222.5 41q41 0 82 -12t68 -31l10 27h172l-217 -817q-14 -49 -12 -81t32 -32q23 0 48.5 23.5t51 57.5t48 71.5t37.5 64.5l49 -29q-27 -57 -61 -111.5t-77 -94t-93 -64.5t-109 -25q-84 0 -103.5 59.5 t13.5 170.5l69 233h-4q-45 -78 -102.5 -159.5t-125 -149.5t-143 -111t-157.5 -43q-51 0 -89 20.5t-61.5 55.5t-35 79t-11.5 89zM338 225q0 -59 19.5 -101t70.5 -42q37 0 78 24.5t85 66.5t88 98.5t87 121.5q41 61 74.5 129t61.5 135.5t48.5 132t34.5 121.5q-49 45 -125 45 q-80 0 -150.5 -38.5t-128 -101t-103.5 -141.5t-76.5 -160t-47 -157.5t-16.5 -132.5zM541 1272q0 55 34.5 90t86.5 35q47 0 72.5 -31t25.5 -70q0 -53 -33 -89t-86 -36q-49 0 -74.5 28t-25.5 73zM967 1272q0 55 34.5 90t85.5 35q47 0 73 -31t26 -70q0 -53 -33 -89t-86 -36 q-49 0 -74.5 28t-25.5 73z" />
<glyph unicode="&#xe5;" horiz-adv-x="1159" d="M135 219q0 68 19.5 154t59.5 176t99.5 176t139 153.5t181 108.5t222.5 41q41 0 82 -12t68 -31l10 27h172l-217 -817q-14 -49 -12 -81t32 -32q23 0 48.5 23.5t51 57.5t48 71.5t37.5 64.5l49 -29q-27 -57 -61 -111.5t-77 -94t-93 -64.5t-109 -25q-84 0 -103.5 59.5 t13.5 170.5l69 233h-4q-45 -78 -102.5 -159.5t-125 -149.5t-143 -111t-157.5 -43q-51 0 -89 20.5t-61.5 55.5t-35 79t-11.5 89zM338 225q0 -59 19.5 -101t70.5 -42q37 0 78 24.5t85 66.5t88 98.5t87 121.5q41 61 74.5 129t61.5 135.5t48.5 132t34.5 121.5q-49 45 -125 45 q-80 0 -150.5 -38.5t-128 -101t-103.5 -141.5t-76.5 -160t-47 -157.5t-16.5 -132.5zM618 1303q0 27 9.5 66.5t36 77.5t74.5 65.5t128 27.5q78 0 136.5 -47t58.5 -139q0 -37 -11.5 -77t-39 -74t-74.5 -55.5t-121 -21.5q-84 0 -140.5 45.5t-56.5 131.5zM735 1303 q0 -55 24.5 -82t59.5 -27q43 0 67.5 22.5t37 52t16.5 59.5t4 46q0 47 -23.5 73t-58.5 26q-37 0 -61.5 -20.5t-38.5 -48.5t-20.5 -56.5t-6.5 -44.5z" />
<glyph unicode="&#xe6;" horiz-adv-x="1605" d="M141 219q0 61 18.5 143t57.5 169t98.5 172t139.5 152t181 108t226 41q39 0 82 -9.5t78 -25.5l72 84h75l-51 -152l4 -4q78 70 157 100.5t165 30.5q131 0 195.5 -61.5t64.5 -143.5q0 -41 -15.5 -87t-74.5 -101q-29 -27 -76 -58.5t-116.5 -63.5t-164 -62.5t-219.5 -57.5 q0 -8 -1 -16t-1 -17q0 -59 9.5 -111t31 -90t56 -60.5t88.5 -22.5q57 0 107 22.5t91 58.5t76 76.5t61 77.5l48 -43q-51 -86 -110.5 -142t-120 -90t-122 -47.5t-116.5 -13.5q-45 0 -98.5 12.5t-97.5 48.5t-73.5 102.5t-29.5 172.5q0 18 2 38t6 50h-4q-39 -68 -93.5 -141.5 t-119 -137t-138 -104.5t-153.5 -41q-51 0 -88 20.5t-60.5 55.5t-35 79t-11.5 89zM344 225q0 -61 18.5 -102t65.5 -41q37 0 81 26.5t90 70.5t92 103.5t87 127.5q35 57 67 120.5t58.5 128t48 125t33.5 109.5q-23 16 -56.5 27.5t-74.5 11.5q-78 0 -145.5 -37t-124 -97.5 t-101.5 -136t-75.5 -153.5t-47 -152.5t-16.5 -130.5zM1042 463q129 29 218.5 69.5t145.5 90t80.5 104t24.5 107.5q0 55 -30.5 88.5t-87.5 33.5q-61 0 -118.5 -42t-105 -111.5t-81 -158.5t-46.5 -181z" />
<glyph unicode="&#xe7;" horiz-adv-x="913" d="M166 303q0 84 18.5 170t54 167t87 151.5t118 123t146.5 83t170 30.5q57 0 105 -13.5t84 -38t55.5 -58t19.5 -72.5q0 -25 -13.5 -46.5t-34 -36.5t-43 -23.5t-40.5 -8.5q-29 0 -42 16.5t-17 45.5q-10 92 -42 127.5t-81 35.5q-70 0 -132.5 -58t-109.5 -148.5t-73.5 -198 t-26.5 -207.5q0 -55 7 -103t26.5 -85t55.5 -58.5t91 -21.5q51 0 99 24.5t90 60.5t77 78t62 76l49 -39q-86 -143 -184.5 -209.5t-194.5 -82.5l-78 -107q35 -4 65.5 -21.5t51 -44t30 -60.5t0.5 -73q-14 -72 -79.5 -110.5t-147.5 -38.5q-39 0 -76 5t-59 15l8 50q35 -4 71 -3 t64.5 11t47 32.5t18.5 59.5q0 41 -30 71.5t-83 34.5l-6 19l107 151q-53 0 -104.5 17.5t-91.5 55.5t-64.5 100.5t-24.5 154.5z" />
<glyph unicode="&#xe8;" horiz-adv-x="937" d="M164 311q0 129 44 256t126 228q86 104 197.5 168.5t250.5 64.5q127 0 190.5 -61.5t63.5 -143.5q0 -43 -15 -93t-71 -103q-33 -31 -79 -61.5t-114.5 -60.5t-163.5 -57.5t-224 -54.5q-2 -10 -2 -17v-16q0 -61 9 -112t30.5 -90t57.5 -60.5t89 -21.5q57 0 107.5 22.5t92.5 57 t76.5 75.5t61.5 78l47 -41q-51 -86 -110.5 -142t-120 -90t-122 -47.5t-116.5 -13.5q-45 0 -98.5 12.5t-99.5 48.5t-76.5 102.5t-30.5 172.5zM373 463q129 29 219 69.5t146.5 90t81 105t24.5 108.5t-33 86.5t-86 33.5q-61 0 -118.5 -42t-105.5 -111.5t-82 -158.5t-46 -181z M395 1393q0 16 8.5 31.5t20.5 27.5t25.5 20.5t25.5 8.5q27 0 55.5 -18.5t75.5 -65.5l244 -246l-31 -41l-309 172q-47 27 -81 52.5t-34 58.5z" />
<glyph unicode="&#xe9;" horiz-adv-x="937" d="M164 311q0 129 44 256t126 228q86 104 197.5 168.5t250.5 64.5q127 0 190.5 -61.5t63.5 -143.5q0 -43 -15 -93t-71 -103q-33 -31 -79 -61.5t-114.5 -60.5t-163.5 -57.5t-224 -54.5q-2 -10 -2 -17v-16q0 -61 9 -112t30.5 -90t57.5 -60.5t89 -21.5q57 0 107.5 22.5t92.5 57 t76.5 75.5t61.5 78l47 -41q-51 -86 -110.5 -142t-120 -90t-122 -47.5t-116.5 -13.5q-45 0 -98.5 12.5t-99.5 48.5t-76.5 102.5t-30.5 172.5zM373 463q129 29 219 69.5t146.5 90t81 105t24.5 108.5t-33 86.5t-86 33.5q-61 0 -118.5 -42t-105.5 -111.5t-82 -158.5t-46 -181z M606 1151l244 246q47 47 75.5 65.5t55.5 18.5q12 0 25.5 -8.5t25.5 -20.5t20.5 -27.5t8.5 -31.5q0 -33 -34 -58.5t-81 -52.5l-309 -172z" />
<glyph unicode="&#xea;" horiz-adv-x="937" d="M164 311q0 129 44 256t126 228q86 104 197.5 168.5t250.5 64.5q127 0 190.5 -61.5t63.5 -143.5q0 -43 -15 -93t-71 -103q-33 -31 -79 -61.5t-114.5 -60.5t-163.5 -57.5t-224 -54.5q-2 -10 -2 -17v-16q0 -61 9 -112t30.5 -90t57.5 -60.5t89 -21.5q57 0 107.5 22.5t92.5 57 t76.5 75.5t61.5 78l47 -41q-51 -86 -110.5 -142t-120 -90t-122 -47.5t-116.5 -13.5q-45 0 -98.5 12.5t-99.5 48.5t-76.5 102.5t-30.5 172.5zM373 463q129 29 219 69.5t146.5 90t81 105t24.5 108.5t-33 86.5t-86 33.5q-61 0 -118.5 -42t-105.5 -111.5t-82 -158.5t-46 -181z M436 1161l283 264q23 23 43 36.5t39 13.5q16 0 31.5 -15.5t29.5 -34.5l182 -264l-47 -43l-174 154q-16 12 -29.5 21.5t-27.5 9.5q-10 0 -28.5 -9.5t-37.5 -21.5l-235 -154z" />
<glyph unicode="&#xeb;" horiz-adv-x="937" d="M164 311q0 129 44 256t126 228q86 104 197.5 168.5t250.5 64.5q127 0 190.5 -61.5t63.5 -143.5q0 -43 -15 -93t-71 -103q-33 -31 -79 -61.5t-114.5 -60.5t-163.5 -57.5t-224 -54.5q-2 -10 -2 -17v-16q0 -61 9 -112t30.5 -90t57.5 -60.5t89 -21.5q57 0 107.5 22.5t92.5 57 t76.5 75.5t61.5 78l47 -41q-51 -86 -110.5 -142t-120 -90t-122 -47.5t-116.5 -13.5q-45 0 -98.5 12.5t-99.5 48.5t-76.5 102.5t-30.5 172.5zM373 463q129 29 219 69.5t146.5 90t81 105t24.5 108.5t-33 86.5t-86 33.5q-61 0 -118.5 -42t-105.5 -111.5t-82 -158.5t-46 -181z M430 1272q0 55 35 90t86 35q47 0 72.5 -31t25.5 -70q0 -53 -32.5 -89t-86.5 -36q-49 0 -74.5 28t-25.5 73zM856 1272q0 55 35 90t86 35q47 0 72.5 -31t25.5 -70q0 -53 -32.5 -89t-86.5 -36q-49 0 -74.5 28t-25.5 73z" />
<glyph unicode="&#xec;" horiz-adv-x="659" d="M245.5 31.5q-22.5 56.5 0.5 144.5l172 641q14 53 6 71.5t-49 22.5l-117 11l12 49l373 57l10 -10l-223 -823q-14 -49 -12 -81t33 -32q23 0 48 23.5t50.5 57.5t48.5 71.5t37 64.5l49 -29q-27 -57 -60.5 -111.5t-75.5 -94t-91 -64.5t-105 -25q-84 0 -106.5 56.5zM266 1393 q0 16 8.5 31.5t20.5 27.5t25.5 20.5t25.5 8.5q27 0 55.5 -18.5t75.5 -65.5l244 -246l-31 -41l-309 172q-47 27 -81 52.5t-34 58.5z" />
<glyph unicode="&#xed;" horiz-adv-x="659" d="M245.5 31.5q-22.5 56.5 0.5 144.5l172 641q14 53 6 71.5t-49 22.5l-117 11l12 49l373 57l10 -10l-223 -823q-14 -49 -12 -81t33 -32q23 0 48 23.5t50.5 57.5t48.5 71.5t37 64.5l49 -29q-27 -57 -60.5 -111.5t-75.5 -94t-91 -64.5t-105 -25q-84 0 -106.5 56.5zM395 1151 l244 246q47 47 75.5 65.5t55.5 18.5q12 0 25.5 -8.5t26 -20.5t20.5 -27.5t8 -31.5q0 -33 -34 -58.5t-81 -52.5l-309 -172z" />
<glyph unicode="&#xee;" horiz-adv-x="659" d="M245.5 31.5q-22.5 56.5 0.5 144.5l172 641q14 53 6 71.5t-49 22.5l-117 11l12 49l373 57l10 -10l-223 -823q-14 -49 -12 -81t33 -32q23 0 48 23.5t50.5 57.5t48.5 71.5t37 64.5l49 -29q-27 -57 -60.5 -111.5t-75.5 -94t-91 -64.5t-105 -25q-84 0 -106.5 56.5zM248 1161 l282 264q23 23 43.5 36.5t38.5 13.5q16 0 31.5 -15.5t30.5 -34.5l182 -264l-47 -43l-174 154q-16 12 -29.5 21.5t-27.5 9.5q-10 0 -29 -9.5t-37 -21.5l-236 -154z" />
<glyph unicode="&#xef;" horiz-adv-x="659" d="M242 1272q0 55 34.5 90t85.5 35q47 0 73 -31t26 -70q0 -53 -33 -89t-86 -36q-49 0 -74.5 28t-25.5 73zM245.5 31.5q-22.5 56.5 0.5 144.5l172 641q14 53 6 71.5t-49 22.5l-117 11l12 49l373 57l10 -10l-223 -823q-14 -49 -12 -81t33 -32q23 0 48 23.5t50.5 57.5 t48.5 71.5t37 64.5l49 -29q-27 -57 -60.5 -111.5t-75.5 -94t-91 -64.5t-105 -25q-84 0 -106.5 56.5zM668 1272q0 55 34.5 90t85.5 35q47 0 73 -31t26 -70q0 -53 -33 -89t-86 -36q-49 0 -74.5 28t-25.5 73z" />
<glyph unicode="&#xf0;" horiz-adv-x="1110" d="M168 346q0 43 11 110.5t39 143.5t74 151.5t114.5 137t163 100.5t216.5 39q18 0 35 -4t37 -10v6q-14 35 -47 86t-82 111l-274 -123l-47 65l270 121q-41 49 -88 98t-101 95v12l78 35q53 -37 111.5 -86.5t114.5 -102.5l262 117l47 -66l-250 -110q43 -45 81 -89t62 -83 q70 -102 107 -200.5t37 -233.5q0 -55 -12.5 -127t-41 -149t-75.5 -151.5t-115 -133t-159 -94.5t-208 -36q-90 0 -157.5 27t-112.5 76t-67.5 117.5t-22.5 150.5zM367 256q0 -104 48 -156.5t138 -52.5q70 0 126 41t99 106.5t74 146.5t50.5 159t28.5 145.5t9 106.5 q0 102 -38 153t-130 51q-70 0 -126 -35.5t-101 -94t-79 -134.5t-55.5 -153.5t-32.5 -151.5t-11 -131z" />
<glyph unicode="&#xf1;" horiz-adv-x="1275" d="M201 -25l215 838q12 49 9 71.5t-40 26.5l-127 11l12 49l375 57l10 -10l-133 -447h6q47 90 107.5 173t131.5 145.5t145.5 100.5t148.5 38q63 0 100 -23.5t53.5 -64.5t13.5 -94t-22 -115l-159 -536q-14 -49 -12.5 -81t32.5 -32q23 0 48.5 23.5t51 57.5t48 71.5t36.5 64.5 l49 -29q-27 -57 -60.5 -111.5t-76.5 -94t-93 -64.5t-107 -25q-84 0 -106.5 57.5t1.5 143.5l176 600q16 59 1 102.5t-68 43.5q-61 0 -127 -49.5t-126.5 -122t-108.5 -155.5t-77 -149q-20 -47 -37.5 -93t-34 -98t-35 -114.5t-40.5 -140.5zM489 1180q16 31 35 65.5t46.5 65 t63.5 50t85 19.5q37 0 79 -12t83 -27q43 -16 83 -27t72 -11q43 0 70 20t70 74l41 -23q-45 -88 -91.5 -141t-121.5 -53q-35 0 -77 12t-87 27q-45 16 -87 27t-77 11q-51 0 -82 -25.5t-66 -78.5z" />
<glyph unicode="&#xf2;" horiz-adv-x="1110" d="M172 346q0 45 11.5 112.5t37 143.5t70.5 151.5t111.5 137t158.5 99.5t213 38q61 0 127 -16.5t119 -57.5t87 -109.5t34 -174.5q0 -41 -7.5 -93.5t-22.5 -108.5t-39.5 -115.5t-59.5 -114.5q-72 -115 -183.5 -189t-279.5 -74q-96 0 -168 27t-118 76t-68.5 117.5t-22.5 150.5 zM371 264q0 -111 47 -164t137 -53q70 0 126 41t99 106.5t74 145.5t50.5 156.5t28.5 142t9 102.5q0 96 -38 155.5t-132 59.5q-68 0 -124 -35.5t-100 -94t-78 -133.5t-55.5 -151.5t-32.5 -149.5t-11 -128zM481 1393q0 16 8.5 31.5t20.5 27.5t25.5 20.5t25.5 8.5 q27 0 55.5 -18.5t75.5 -65.5l244 -246l-31 -41l-309 172q-47 27 -81 52.5t-34 58.5z" />
<glyph unicode="&#xf3;" horiz-adv-x="1110" d="M172 346q0 45 11.5 112.5t37 143.5t70.5 151.5t111.5 137t158.5 99.5t213 38q61 0 127 -16.5t119 -57.5t87 -109.5t34 -174.5q0 -41 -7.5 -93.5t-22.5 -108.5t-39.5 -115.5t-59.5 -114.5q-72 -115 -183.5 -189t-279.5 -74q-96 0 -168 27t-118 76t-68.5 117.5t-22.5 150.5 zM371 264q0 -111 47 -164t137 -53q70 0 126 41t99 106.5t74 145.5t50.5 156.5t28.5 142t9 102.5q0 96 -38 155.5t-132 59.5q-68 0 -124 -35.5t-100 -94t-78 -133.5t-55.5 -151.5t-32.5 -149.5t-11 -128zM651 1151l244 246q47 47 75.5 65.5t55.5 18.5q12 0 25.5 -8.5 t26 -20.5t20.5 -27.5t8 -31.5q0 -33 -34 -58.5t-81 -52.5l-309 -172z" />
<glyph unicode="&#xf4;" horiz-adv-x="1110" d="M172 346q0 45 11.5 112.5t37 143.5t70.5 151.5t111.5 137t158.5 99.5t213 38q61 0 127 -16.5t119 -57.5t87 -109.5t34 -174.5q0 -41 -7.5 -93.5t-22.5 -108.5t-39.5 -115.5t-59.5 -114.5q-72 -115 -183.5 -189t-279.5 -74q-96 0 -168 27t-118 76t-68.5 117.5t-22.5 150.5 zM371 264q0 -111 47 -164t137 -53q70 0 126 41t99 106.5t74 145.5t50.5 156.5t28.5 142t9 102.5q0 96 -38 155.5t-132 59.5q-68 0 -124 -35.5t-100 -94t-78 -133.5t-55.5 -151.5t-32.5 -149.5t-11 -128zM489 1161l283 264q23 23 43.5 36.5t38.5 13.5q16 0 31.5 -15.5 t29.5 -34.5l183 -264l-47 -43l-174 154q-16 12 -29.5 21.5t-28.5 9.5q-10 0 -28.5 -9.5t-36.5 -21.5l-236 -154z" />
<glyph unicode="&#xf5;" horiz-adv-x="1110" d="M172 346q0 45 11.5 112.5t37 143.5t70.5 151.5t111.5 137t158.5 99.5t213 38q61 0 127 -16.5t119 -57.5t87 -109.5t34 -174.5q0 -41 -7.5 -93.5t-22.5 -108.5t-39.5 -115.5t-59.5 -114.5q-72 -115 -183.5 -189t-279.5 -74q-96 0 -168 27t-118 76t-68.5 117.5t-22.5 150.5 zM371 264q0 -111 47 -164t137 -53q70 0 126 41t99 106.5t74 145.5t50.5 156.5t28.5 142t9 102.5q0 96 -38 155.5t-132 59.5q-68 0 -124 -35.5t-100 -94t-78 -133.5t-55.5 -151.5t-32.5 -149.5t-11 -128zM420 1180q16 31 34.5 65.5t46 65t63.5 50t85 19.5q37 0 79 -12t83 -27 q43 -16 83 -27t73 -11q43 0 69.5 20t69.5 74l41 -23q-45 -88 -91 -141t-122 -53q-35 0 -77 12t-87 27q-45 16 -87 27t-77 11q-51 0 -81.5 -25.5t-65.5 -78.5z" />
<glyph unicode="&#xf6;" horiz-adv-x="1110" d="M172 346q0 45 11.5 112.5t37 143.5t70.5 151.5t111.5 137t158.5 99.5t213 38q61 0 127 -16.5t119 -57.5t87 -109.5t34 -174.5q0 -41 -7.5 -93.5t-22.5 -108.5t-39.5 -115.5t-59.5 -114.5q-72 -115 -183.5 -189t-279.5 -74q-96 0 -168 27t-118 76t-68.5 117.5t-22.5 150.5 zM371 264q0 -111 47 -164t137 -53q70 0 126 41t99 106.5t74 145.5t50.5 156.5t28.5 142t9 102.5q0 96 -38 155.5t-132 59.5q-68 0 -124 -35.5t-100 -94t-78 -133.5t-55.5 -151.5t-32.5 -149.5t-11 -128zM516 1272q0 55 35 90t86 35q47 0 72.5 -31t25.5 -70q0 -53 -32.5 -89 t-86.5 -36q-49 0 -74.5 28t-25.5 73zM942 1272q0 55 35 90t86 35q47 0 72.5 -31t25.5 -70q0 -53 -32.5 -89t-86.5 -36q-49 0 -74.5 28t-25.5 73z" />
<glyph unicode="&#xf7;" horiz-adv-x="1167" d="M190 453v118h992v-118h-992zM563 174q0 49 35 85t88 36q49 0 84 -35t35 -82q0 -18 -5 -40.5t-17.5 -41t-36 -32t-60.5 -13.5q-53 0 -88 36t-35 87zM563 852q0 49 35 85t88 36q49 0 84 -35t35 -82q0 -18 -5 -40.5t-18.5 -41t-37 -32t-58.5 -13.5q-53 0 -88 36t-35 87z" />
<glyph unicode="&#xf8;" horiz-adv-x="1110" d="M172 346q0 45 11.5 112.5t37 143.5t70.5 151.5t111.5 137t158.5 99.5t213 38q51 0 103.5 -10t99.5 -37l82 102l59 -51l-78 -98q47 -41 74 -105.5t27 -158.5q0 -41 -7.5 -93.5t-22.5 -108.5t-39.5 -115.5t-59.5 -114.5q-72 -115 -183.5 -189t-279.5 -74q-137 0 -223 58 l-90 -113l-56 55l84 105q-47 49 -69.5 117.5t-22.5 148.5zM360 264q0 -16 2.5 -29.5t4.5 -25.5l544 688q-43 59 -139 59q-70 0 -128 -35.5t-103 -94t-79 -133.5t-56.5 -151.5t-34 -149.5t-11.5 -128zM397 123q45 -76 158 -76q74 0 131 41t101 106.5t76 145.5t51.5 156.5 t28.5 142t9 102.5q0 18 -2 36t-6 34z" />
<glyph unicode="&#xf9;" horiz-adv-x="1275" d="M255 156.5q3 54.5 19 115.5l142 541q12 47 9 70.5t-40 27.5l-127 11l12 49l373 57l10 -10l-196 -756q-47 -180 51 -180q63 0 126.5 46t122 116.5t107.5 154.5t82 162q20 47 36.5 92t34 97.5t35 114t40.5 139.5l182 24l-219 -835q-12 -47 -9 -79t35 -32q23 0 48.5 24.5 t52 58.5t50 70.5t38.5 63.5l49 -31q-27 -57 -62.5 -109.5t-79.5 -93t-94.5 -65.5t-105.5 -25q-82 0 -102.5 58.5t8.5 163.5l67 233h-4q-45 -88 -107.5 -171t-132 -145.5t-145.5 -100.5t-149 -38q-61 0 -96 24t-49.5 63.5t-11.5 94zM512 1393q0 16 8 31.5t20.5 27.5t26 20.5 t25.5 8.5q27 0 55.5 -18.5t75.5 -65.5l244 -246l-31 -41l-309 172q-47 27 -81 52.5t-34 58.5z" />
<glyph unicode="&#xfa;" horiz-adv-x="1275" d="M255 156.5q3 54.5 19 115.5l142 541q12 47 9 70.5t-40 27.5l-127 11l12 49l373 57l10 -10l-196 -756q-47 -180 51 -180q63 0 126.5 46t122 116.5t107.5 154.5t82 162q20 47 36.5 92t34 97.5t35 114t40.5 139.5l182 24l-219 -835q-12 -47 -9 -79t35 -32q23 0 48.5 24.5 t52 58.5t50 70.5t38.5 63.5l49 -31q-27 -57 -62.5 -109.5t-79.5 -93t-94.5 -65.5t-105.5 -25q-82 0 -102.5 58.5t8.5 163.5l67 233h-4q-45 -88 -107.5 -171t-132 -145.5t-145.5 -100.5t-149 -38q-61 0 -96 24t-49.5 63.5t-11.5 94zM743 1151l244 246q47 47 76 65.5t55 18.5 q12 0 25.5 -8.5t26 -20.5t20.5 -27.5t8 -31.5q0 -33 -34 -58.5t-81 -52.5l-309 -172z" />
<glyph unicode="&#xfb;" horiz-adv-x="1275" d="M255 156.5q3 54.5 19 115.5l142 541q12 47 9 70.5t-40 27.5l-127 11l12 49l373 57l10 -10l-196 -756q-47 -180 51 -180q63 0 126.5 46t122 116.5t107.5 154.5t82 162q20 47 36.5 92t34 97.5t35 114t40.5 139.5l182 24l-219 -835q-12 -47 -9 -79t35 -32q23 0 48.5 24.5 t52 58.5t50 70.5t38.5 63.5l49 -31q-27 -57 -62.5 -109.5t-79.5 -93t-94.5 -65.5t-105.5 -25q-82 0 -102.5 58.5t8.5 163.5l67 233h-4q-45 -88 -107.5 -171t-132 -145.5t-145.5 -100.5t-149 -38q-61 0 -96 24t-49.5 63.5t-11.5 94zM555 1161l283 264q23 23 43 36.5t39 13.5 q16 0 31.5 -15.5t29.5 -34.5l182 -264l-47 -43l-174 154q-16 12 -29.5 21.5t-27.5 9.5q-10 0 -28.5 -9.5t-37.5 -21.5l-235 -154z" />
<glyph unicode="&#xfc;" horiz-adv-x="1275" d="M255 156.5q3 54.5 19 115.5l142 541q12 47 9 70.5t-40 27.5l-127 11l12 49l373 57l10 -10l-196 -756q-47 -180 51 -180q63 0 126.5 46t122 116.5t107.5 154.5t82 162q20 47 36.5 92t34 97.5t35 114t40.5 139.5l182 24l-219 -835q-12 -47 -9 -79t35 -32q23 0 48.5 24.5 t52 58.5t50 70.5t38.5 63.5l49 -31q-27 -57 -62.5 -109.5t-79.5 -93t-94.5 -65.5t-105.5 -25q-82 0 -102.5 58.5t8.5 163.5l67 233h-4q-45 -88 -107.5 -171t-132 -145.5t-145.5 -100.5t-149 -38q-61 0 -96 24t-49.5 63.5t-11.5 94zM573 1272q0 55 35 90t86 35q47 0 73 -31 t26 -70q0 -53 -33 -89t-86 -36q-49 0 -75 28t-26 73zM999 1272q0 55 35 90t86 35q47 0 73 -31t26 -70q0 -53 -33 -89t-86 -36q-49 0 -75 28t-26 73z" />
<glyph unicode="&#xfd;" horiz-adv-x="968" d="M-10 -383q0 45 31.5 83t72.5 40q23 0 38 -12.5t34 -36.5q23 -31 42 -47.5t42 -16.5q31 0 66.5 40t64.5 106q35 82 42 144.5t7 109.5q0 61 -7 158.5t-18.5 202t-22.5 200.5t-20 155q-12 80 -24 111t-47 29l-139 -4l-7 51l344 98l17 -8q10 -55 22.5 -158.5t23.5 -227.5 t20.5 -258t15.5 -251h6q51 88 98 172t85 157.5t65.5 135t40.5 104.5q10 33 15 71t8 76t3 73.5v62.5q39 27 85 39t75 12q10 0 23.5 -31t13.5 -84q0 -31 -21.5 -81t-57.5 -113.5t-80 -135t-87 -143.5q-47 -78 -93 -155.5t-85 -144t-67.5 -118t-45.5 -77.5q-68 -117 -119 -200 t-98 -137t-97 -79t-116 -25q-68 0 -108.5 36t-40.5 77zM621 1151l243 246q47 47 76 65.5t55 18.5q12 0 25.5 -8.5t26 -20.5t20.5 -27.5t8 -31.5q0 -33 -33.5 -58.5t-80.5 -52.5l-310 -172z" />
<glyph unicode="&#xfe;" horiz-adv-x="1206" d="M104 -496l375 1715q10 47 5 70.5t-42 27.5l-127 10l13 49l370 58l11 -11l-199 -837h6q59 111 125 193.5t133.5 138t133 83t124.5 27.5q115 0 171.5 -69.5t56.5 -204.5q0 -39 -12.5 -112t-42 -160t-78 -176t-119 -162.5t-167 -121t-220.5 -47.5q-80 0 -134.5 12.5 t-87.5 32.5l-112 -491zM420 109q35 -29 78 -45.5t102 -16.5q84 0 150.5 41t117 105.5t87 144.5t59 158.5t33 146.5t10.5 109q0 82 -28 126t-83 44q-43 0 -92 -29t-97 -75t-93.5 -106.5t-81.5 -125.5q-29 -51 -54.5 -113.5t-46 -127t-36 -126t-25.5 -110.5z" />
<glyph unicode="&#xff;" horiz-adv-x="968" d="M-10 -383q0 45 31.5 83t72.5 40q23 0 38 -12.5t34 -36.5q23 -31 42 -47.5t42 -16.5q31 0 66.5 40t64.5 106q35 82 42 144.5t7 109.5q0 61 -7 158.5t-18.5 202t-22.5 200.5t-20 155q-12 80 -24 111t-47 29l-139 -4l-7 51l344 98l17 -8q10 -55 22.5 -158.5t23.5 -227.5 t20.5 -258t15.5 -251h6q51 88 98 172t85 157.5t65.5 135t40.5 104.5q10 33 15 71t8 76t3 73.5v62.5q39 27 85 39t75 12q10 0 23.5 -31t13.5 -84q0 -31 -21.5 -81t-57.5 -113.5t-80 -135t-87 -143.5q-47 -78 -93 -155.5t-85 -144t-67.5 -118t-45.5 -77.5q-68 -117 -119 -200 t-98 -137t-97 -79t-116 -25q-68 0 -108.5 36t-40.5 77zM494 1272q0 55 34.5 90t85.5 35q47 0 73 -31t26 -70q0 -53 -33 -89t-86 -36q-49 0 -74.5 28t-25.5 73zM920 1272q0 55 34.5 90t85.5 35q47 0 73 -31t26 -70q0 -53 -33 -89t-86 -36q-49 0 -74.5 28t-25.5 73z" />
<glyph unicode="&#x152;" horiz-adv-x="2088" d="M233 600q0 23 3.5 67t16.5 100t39.5 123.5t72.5 139.5q53 86 124.5 156.5t170 122t227.5 80t301 28.5h1098l-78 -342h-62q6 70 7 120t-20.5 84t-72.5 50.5t-147 16.5h-248q-27 0 -38 -11.5t-19 -48.5l-117 -510h268q68 0 109 7.5t67.5 26.5t43 53t36.5 87h62l-95 -428 h-61q4 49 1 83t-19.5 54.5t-54.5 29.5t-105 9h-268l-105 -448q-16 -72 -14 -102.5t24 -49.5q20 -16 87 -21t143 -5q94 0 161.5 9t117.5 40t90 88t79 151h62l-105 -360h-1048q-365 0 -549.5 145.5t-184.5 454.5zM455 561q0 -135 38.5 -228t105.5 -151.5t156 -84t189 -25.5 q49 0 86 4t63.5 18.5t44 42t27.5 74.5l230 1008q10 39 8 63.5t-22.5 38.5t-64.5 19.5t-122 5.5q-195 0 -335 -71t-230 -183.5t-132 -252t-42 -278.5z" />
<glyph unicode="&#x153;" horiz-adv-x="1660" d="M172 346q0 45 11.5 112.5t37 143.5t70.5 151.5t111.5 137t158.5 99.5t213 38q41 0 88 -10t92 -35t82 -67t58 -103q86 98 190.5 156.5t220.5 58.5q127 0 190.5 -61.5t63.5 -143.5q0 -43 -15 -93t-71 -103q-33 -31 -79 -61.5t-114.5 -60.5t-163.5 -57.5t-224 -54.5 q-2 -10 -2 -17v-16q0 -61 9 -112t30.5 -90t57.5 -60.5t89 -21.5q57 0 107.5 22.5t92.5 57t76.5 75.5t61.5 78l47 -41q-51 -86 -110.5 -142t-120 -90t-122 -47.5t-116.5 -13.5q-29 0 -67 7.5t-74.5 28t-68.5 57t-50 94.5q-72 -84 -171 -135.5t-216 -51.5q-94 0 -165 27 t-117 76t-68.5 117.5t-22.5 150.5zM371 264q0 -111 47 -164t137 -53q70 0 126 41t99 106.5t74 145.5t50.5 156.5t28.5 142t9 102.5q0 96 -38 155.5t-132 59.5q-68 0 -124 -35.5t-100 -94t-78 -133.5t-55.5 -151.5t-32.5 -149.5t-11 -128zM1096 463q129 29 219 69.5t146.5 90 t81 105t24.5 108.5t-33 86.5t-86 33.5q-61 0 -118.5 -42t-105.5 -111.5t-82 -158.5t-46 -181z" />
<glyph unicode="&#x178;" horiz-adv-x="1210" d="M268 1358l13 59h510l-13 -59l-112 -10q-53 -6 -39 -60l186 -629h6q61 82 125 172.5t122 174.5t107.5 158.5t77.5 125.5q31 53 -30 60l-107 8l12 59h469l-12 -59q-43 -2 -71.5 -8.5t-51 -16.5t-43 -29.5t-49.5 -50.5q-41 -47 -98.5 -118.5t-121 -155.5t-128 -174 t-123.5 -176q-16 -23 -31.5 -52.5t-25.5 -70.5l-78 -346q-10 -43 0 -63.5t47 -24.5l156 -13l-13 -59h-635l13 59l147 15q41 4 57.5 23.5t26.5 62.5l78 344q14 59 0 108q-51 170 -99 334t-102 318q-10 31 -19 47t-26.5 25.5t-46.5 13.5t-78 8zM623 1612q0 55 34.5 90t85.5 35 q47 0 73 -31t26 -70q0 -53 -33 -89t-86 -36q-49 0 -74.5 28t-25.5 73zM1049 1612q0 55 34.5 90t85.5 35q47 0 73 -31t26 -70q0 -53 -33 -89t-86 -36q-49 0 -74.5 28t-25.5 73z" />
<glyph unicode="&#x2c6;" horiz-adv-x="819" d="M455 1161l282 264q23 23 43.5 36.5t38.5 13.5q16 0 31.5 -15.5t30.5 -34.5l182 -264l-47 -43l-174 154q-16 12 -29.5 21.5t-28.5 9.5q-10 0 -28.5 -9.5t-36.5 -21.5l-236 -154z" />
<glyph unicode="&#x2dc;" horiz-adv-x="819" d="M352 1180q16 31 35 65.5t46.5 65t63 50t85.5 19.5q37 0 78.5 -12t82.5 -27q43 -16 83 -27t73 -11q43 0 69.5 20t69.5 74l41 -23q-45 -88 -91 -141t-122 -53q-35 0 -76.5 12t-87.5 27q-45 16 -87 27t-76 11q-51 0 -82 -25.5t-66 -78.5z" />
<glyph unicode="&#x2000;" horiz-adv-x="912" />
<glyph unicode="&#x2001;" horiz-adv-x="1824" />
<glyph unicode="&#x2002;" horiz-adv-x="912" />
<glyph unicode="&#x2003;" horiz-adv-x="1824" />
<glyph unicode="&#x2004;" horiz-adv-x="608" />
<glyph unicode="&#x2005;" horiz-adv-x="456" />
<glyph unicode="&#x2006;" horiz-adv-x="304" />
<glyph unicode="&#x2007;" horiz-adv-x="304" />
<glyph unicode="&#x2008;" horiz-adv-x="228" />
<glyph unicode="&#x2009;" horiz-adv-x="364" />
<glyph unicode="&#x200a;" horiz-adv-x="101" />
<glyph unicode="&#x2010;" horiz-adv-x="802" d="M240 442l28 144h502l-29 -144h-501z" />
<glyph unicode="&#x2011;" horiz-adv-x="802" d="M240 442l28 144h502l-29 -144h-501z" />
<glyph unicode="&#x2012;" horiz-adv-x="802" d="M240 442l28 144h502l-29 -144h-501z" />
<glyph unicode="&#x2013;" horiz-adv-x="1024" d="M96 453l25 118h1024l-25 -118h-1024z" />
<glyph unicode="&#x2014;" horiz-adv-x="2048" d="M96 453l25 118h2048l-25 -118h-2048z" />
<glyph unicode="&#x2018;" horiz-adv-x="442" d="M338 1130q0 66 27.5 122.5t68.5 106.5t90 93t94 80l33 -35q-53 -51 -92 -107.5t-45 -113.5q-4 -31 3 -52.5t18 -43.5q8 -18 16 -37t8 -41q0 -41 -30.5 -71t-77.5 -32q-27 0 -48.5 11.5t-36 31t-21.5 43t-7 45.5z" />
<glyph unicode="&#x2019;" horiz-adv-x="442" d="M301 1022q53 51 92 107.5t45 113.5q4 31 -3 52.5t-17 43.5q-8 18 -16.5 37t-8.5 41q0 41 31 71t78 32q27 0 48 -11.5t35.5 -31t21.5 -42.5t7 -46q0 -66 -26.5 -122.5t-68.5 -106.5t-91 -93t-94 -80z" />
<glyph unicode="&#x201a;" horiz-adv-x="442" d="M57 -188q53 51 92 107t46 114q4 31 -3.5 52t-17.5 44q-8 18 -16 36.5t-8 41.5q0 41 30.5 70.5t77.5 31.5q27 0 48.5 -11t35.5 -30.5t21.5 -43t7.5 -46.5q0 -66 -27 -122t-69 -106t-91 -93t-94 -80z" />
<glyph unicode="&#x201c;" horiz-adv-x="823" d="M346 1130q0 66 27.5 122.5t68.5 106.5t90.5 93t94.5 80l32 -35q-53 -51 -92 -107.5t-45 -113.5q-4 -31 3 -52.5t18 -43.5q8 -18 16 -37t8 -41q0 -41 -30.5 -71t-77.5 -32q-27 0 -48.5 11.5t-36 31t-21.5 43t-7 45.5zM727 1130q0 66 27.5 122.5t68.5 106.5t90.5 93 t94.5 80l32 -35q-53 -51 -92 -107.5t-45 -113.5q-4 -31 3 -52.5t18 -43.5q8 -18 16 -37t8 -41q0 -41 -30.5 -71t-77.5 -32q-27 0 -48.5 11.5t-36 31t-21.5 43t-7 45.5z" />
<glyph unicode="&#x201d;" horiz-adv-x="823" d="M291 1026q53 51 92 107.5t45 113.5q4 31 -3 52.5t-17 43.5q-8 18 -16.5 37t-8.5 41q0 41 30.5 71t78.5 32q27 0 48 -11.5t35.5 -31t21.5 -42.5t7 -46q0 -66 -26.5 -122.5t-68.5 -106.5t-91 -93t-94 -80zM672 1026q53 51 92 107.5t45 113.5q4 31 -3 52.5t-18 43.5 q-8 18 -16 37t-8 41q0 41 30.5 71t77.5 32q27 0 48.5 -11.5t36 -31t21.5 -42.5t7 -46q0 -66 -26.5 -122.5t-68.5 -106.5t-91 -93t-94 -80z" />
<glyph unicode="&#x201e;" horiz-adv-x="823" d="M57 -188q53 51 92 107t46 114q4 31 -3.5 52t-17.5 44q-8 18 -16 36.5t-8 41.5q0 41 30.5 70.5t77.5 31.5q27 0 48.5 -11t35.5 -30.5t21.5 -43t7.5 -46.5q0 -66 -27 -122t-69 -106t-91 -93t-94 -80zM438 -188q53 51 92 107t45 114q4 31 -3 52t-17 44q-8 18 -16.5 36.5 t-8.5 41.5q0 41 31 70.5t78 31.5q27 0 48.5 -11t35.5 -30.5t21.5 -43t7.5 -46.5q0 -66 -27 -122t-69 -106t-91 -93t-94 -80z" />
<glyph unicode="&#x2022;" horiz-adv-x="1024" d="M297 721q0 68 26.5 127t70.5 103t103.5 71t127.5 27q66 0 125 -27t104 -71t70.5 -103t25.5 -127t-25.5 -127t-70.5 -104.5t-104.5 -71t-124.5 -25.5q-68 0 -127.5 25.5t-103.5 71t-70.5 104.5t-26.5 127z" />
<glyph unicode="&#x2026;" horiz-adv-x="2048" d="M246 92q0 63 36.5 101t96.5 38q55 0 86 -33.5t31 -80.5q0 -66 -37 -104t-97 -38q-55 0 -85.5 34t-30.5 83zM928 92q0 63 36.5 101t96.5 38q55 0 86 -33.5t31 -80.5q0 -66 -37 -104t-97 -38q-55 0 -85.5 34t-30.5 83zM1610 92q0 63 36.5 101t96.5 38q55 0 86 -33.5 t31 -80.5q0 -66 -37 -104t-97 -38q-55 0 -85.5 34t-30.5 83z" />
<glyph unicode="&#x202f;" horiz-adv-x="364" />
<glyph unicode="&#x2039;" horiz-adv-x="567" d="M216 489.5q3 18.5 15 30.5l347 371l40 -35l-208 -334q-20 -33 -9 -69l113 -338l-47 -31l-244 373q-10 14 -7 32.5z" />
<glyph unicode="&#x203a;" horiz-adv-x="567" d="M162 119l209 334q20 33 8 69l-113 338l47 31l244 -373q10 -14 7 -32.5t-15 -30.5l-346 -371z" />
<glyph unicode="&#x205f;" horiz-adv-x="456" />
<glyph unicode="&#x2122;" horiz-adv-x="2252" d="M258 1210v207h780v-207h-43q-8 49 -19 79t-32.5 46.5t-56.5 21.5t-88 5h-70v-668q0 -25 3 -39t17.5 -22t42 -11.5t78.5 -7.5v-47h-442v47q49 4 78 7.5t43 11.5t17 22.5t3 38.5v668h-65q-55 0 -91 -5t-57.5 -21.5t-34 -46t-20.5 -79.5h-43zM1110 567v47q55 4 84 15.5 t33 48.5q4 31 5 66.5t1 84.5v461q0 25 -3 38t-14.5 21.5t-34 12.5t-63.5 8v47h312q35 -82 72.5 -162.5t76.5 -164.5l137 -291h4l138 293q39 82 76.5 162.5t72.5 162.5h305v-47q-41 -4 -63.5 -8t-33.5 -12.5t-14 -21.5t-3 -38v-596q0 -25 3 -39t14 -22t33.5 -11.5t63.5 -7.5 v-47h-385v47q41 4 63.5 7.5t34 11.5t14.5 22.5t3 38.5v611h-8l-342 -715h-43l-340 715h-9v-476q0 -49 2.5 -84.5t6.5 -66.5q4 -37 34.5 -47t108.5 -17v-47h-342z" />
<glyph unicode="&#xe000;" horiz-adv-x="1024" d="M0 0v1024h1024v-1024h-1024z" />
</font>
</defs>
</svg>
